<?xml version="1.0" encoding="UTF-8"?>
<svg id="uuid-ef7faca6-bbdb-4c4b-a4ed-cfd20952d6b2" data-name="die line" xmlns="http://www.w3.org/2000/svg" viewBox="0 0 579.36 142.2">
  <defs>
    <style>
      .uuid-ab1cbe96-047f-465a-8217-88a0326cb8d3 {
        fill: #f6f7d7;
        stroke-width: 0px;
      }
    </style>
  </defs>
  <g>
    <path class="uuid-ab1cbe96-047f-465a-8217-88a0326cb8d3" d="m8.32,19.22h23.65v41.87l31.7-41.87h28.8l-35.53,44.65,36.99,49.01h-28.8l-33.16-45.71v45.71H8.32V19.22Z"/>
    <path class="uuid-ab1cbe96-047f-465a-8217-88a0326cb8d3" d="m92.47,80.38c0-19.15,15.32-33.68,36.06-33.68s36.06,14.4,36.06,33.68-15.32,33.95-35.93,33.95-36.19-14.53-36.19-33.95Zm48.74.13c0-7.93-5.15-13.21-12.68-13.21s-12.68,5.42-12.68,13.34,5.15,13.21,12.68,13.21,12.68-5.42,12.68-13.34Z"/>
    <path class="uuid-ab1cbe96-047f-465a-8217-88a0326cb8d3" d="m167.5,102.57l12.55-12.81c4.23,4.49,10.3,7,17.04,7,3.83,0,5.94-1.06,5.94-3.04,0-8.19-30.51-2.38-30.51-26.42,0-12.28,10.7-21,27.08-21,11.23,0,21.93,3.83,28,11.36l-12.68,12.81c-4.23-4.76-9.78-6.34-14-6.34s-5.68,1.19-5.68,3.17c0,7.13,30.25,2.38,30.25,26.55,0,12.81-10.57,20.87-27.21,20.87-11.76,0-24.04-4.89-30.78-12.15Z"/>
    <path class="uuid-ab1cbe96-047f-465a-8217-88a0326cb8d3" d="m244.77,67.43h-14.27v-19.15h14.27v-26.68h22.98v26.68h14.27v19.15h-14.27v45.44h-22.98v-45.44Z"/>
    <path class="uuid-ab1cbe96-047f-465a-8217-88a0326cb8d3" d="m287.04,65.98c0-27.61,21.53-48.35,49.8-48.35,14.79,0,26.68,5.02,35.53,13.21l-15.85,15.85c-4.49-5.02-10.96-7.93-19.68-7.93-15.06,0-25.76,10.57-25.76,27.21s10.7,27.34,25.76,27.34c8.85,0,15.32-2.77,20.21-7.93l15.85,15.85c-9.11,8.19-20.34,13.08-35.8,13.08-28.4,0-50.06-20.74-50.06-48.35Z"/>
    <path class="uuid-ab1cbe96-047f-465a-8217-88a0326cb8d3" d="m376.33,80.64c0-19.55,12.95-33.68,30.91-33.68,6.6,0,12.42,2.11,16.64,5.81v-4.49h22.59v64.59h-22.59v-4.36c-4.23,3.57-10.04,5.68-16.64,5.68-17.96,0-30.91-14.13-30.91-33.55Zm48.48-.13c0-7.66-5.15-13.08-12.55-13.08s-12.68,5.55-12.68,13.08,5.28,13.21,12.55,13.21,12.68-5.42,12.68-13.21Z"/>
    <path class="uuid-ab1cbe96-047f-465a-8217-88a0326cb8d3" d="m540.79,67.43h-14.27v-19.15h14.27v-26.68h22.98v26.68h14.27v19.15h-14.27v45.44h-22.98v-45.44Z"/>
  </g>
  <g>
    <rect class="uuid-ab1cbe96-047f-465a-8217-88a0326cb8d3" x="454.76" y="48.28" width="64.72" height="19.15"/>
    <rect class="uuid-ab1cbe96-047f-465a-8217-88a0326cb8d3" x="454.76" y="19.22" width="64.72" height="18.34"/>
    <path class="uuid-ab1cbe96-047f-465a-8217-88a0326cb8d3" d="m468.73,73.65c11.68,0,21.15-8.1,21.15-18.09s-9.47-18.09-21.15-18.09c.12-3.35.24-6.7.36-10.05,2.3-.33,5.35-.52,8.83,0,12.96,1.95,27.79,13.16,28.16,28.14.38,15.18-14.86,30.16-35.18,30.09l-2.17-12Z"/>
    <polygon class="uuid-ab1cbe96-047f-465a-8217-88a0326cb8d3" points="519.48 112.76 496.59 112.87 454.76 73.82 477.65 73.7 519.48 112.76"/>
  </g>
</svg>