<?xml version="1.0" encoding="UTF-8"?>
<svg id="uuid-e0a1d202-4e75-474d-bd5d-17a44849eef2" data-name="die line" xmlns="http://www.w3.org/2000/svg" viewBox="0 0 1195.19 1195.19">
  <defs>
    <style>
      .uuid-8bd23c54-28b5-4dbd-a254-490357d5b79a {
        fill: #2a286b;
        stroke-width: 0px;
      }
    </style>
  </defs>
  <g>
    <g>
      <path class="uuid-8bd23c54-28b5-4dbd-a254-490357d5b79a" d="m513.32,454.27l191.04-191.04h-263.9l-163.18,163.18v-163.18c-56.72-19.18-113.45-38.35-170.17-57.53-11.94,22.67-23.87,45.35-35.81,68.02,35.68,12.05,71.37,24.09,107.05,36.14.05,167.17.1,334.34.15,501.51h98.78v-121.06l96.04-96.04c61.12,15.36,106.57,70.62,106.57,136.43v80.67h186.6v-80.67c0-116.44-61.31-218.48-153.17-276.43Z"/>
      <path class="uuid-8bd23c54-28b5-4dbd-a254-490357d5b79a" d="m816.88,263.24c56.17,0,109.91,16.79,156,48.52l66.43,46.09-91.99,132.86-66.43-46.09c-18.85-12.88-40.86-19.78-64-19.78-61.95,0-112.52,50.38-112.52,112.52s50.57,112.52,112.52,112.52c26.31,0,50.75-8.77,71.09-25.19l62.51-51.13,102.07,125.4-62.7,50.94c-48.52,39.56-110.09,61.39-172.98,61.39h242.57c45.25-182.28,90.5-364.56,135.74-546.83-126.1-.4-252.21-.81-378.31-1.21Z"/>
    </g>
    <path class="uuid-8bd23c54-28b5-4dbd-a254-490357d5b79a" d="m368.51,886.41c0,73.64-59.7,133.34-133.34,133.34s-133.34-59.7-133.34-133.34,59.7-133.34,133.34-133.34,133.34,59.7,133.34,133.34Zm-133.34-74.77c-41.29,0-74.77,33.47-74.77,74.77s33.47,74.77,74.77,74.77,74.77-33.47,74.77-74.77-33.47-74.77-74.77-74.77Z"/>
    <path class="uuid-8bd23c54-28b5-4dbd-a254-490357d5b79a" d="m1192.79,886.41c0,73.64-59.7,133.34-133.34,133.34s-133.34-59.7-133.34-133.34,59.7-133.34,133.34-133.34,133.34,59.7,133.34,133.34Zm-133.34-74.77c-41.29,0-74.77,33.47-74.77,74.77s33.47,74.77,74.77,74.77,74.77-33.47,74.77-74.77-33.47-74.77-74.77-74.77Z"/>
  </g>
  <path class="uuid-8bd23c54-28b5-4dbd-a254-490357d5b79a" d="m2.09,204.18h0c-7.73,22.9,6.64,48.43,32.09,57.02l264.63,89.33c4.52-29.27,9.03-58.54,13.55-87.8-83.4-28.15-166.79-56.3-250.19-84.46-25.45-8.59-52.35,3.01-60.08,25.91Z"/>
  <rect class="uuid-8bd23c54-28b5-4dbd-a254-490357d5b79a" x="277.28" y="263.24" width="36.59" height="548.05"/>
  <rect class="uuid-8bd23c54-28b5-4dbd-a254-490357d5b79a" x="160.6" y="263.24" width="36.59" height="548.05"/>
</svg>