<?xml version="1.0" encoding="UTF-8"?>
<svg id="uuid-c3d50dc8-73ce-4abb-adff-ea3d2c1d0f97" data-name="Layer 1" xmlns="http://www.w3.org/2000/svg" viewBox="0 0 689.02 1361.06">
  <defs>
    <style>
      .uuid-e7c66de8-a773-45ea-a929-2eb250d368c7 {
        fill: #ffe605;
      }

      .uuid-e7c66de8-a773-45ea-a929-2eb250d368c7, .uuid-ed531d15-9dbe-447c-8b61-a142c358a170, .uuid-6c5d0ed0-e7c0-4a07-9abc-3e34356b2e80, .uuid-f6f7efba-c2fb-4581-bb60-cdd398eef651 {
        fill-rule: evenodd;
        stroke-width: 0px;
      }

      .uuid-ed531d15-9dbe-447c-8b61-a142c358a170 {
        fill: #daca4b;
      }

      .uuid-6c5d0ed0-e7c0-4a07-9abc-3e34356b2e80 {
        fill: #fff;
      }

      .uuid-f6f7efba-c2fb-4581-bb60-cdd398eef651 {
        fill: #fef4b0;
      }
    </style>
  </defs>
  <path class="uuid-e7c66de8-a773-45ea-a929-2eb250d368c7" d="m310.17,16.66c0,11.04,1.84,10.62,8.76,19.9,3.29,4.41,9.24,9.54,9.24,15.42,0,6.21-19.51,5.42-25.55,7.11l-20.16,3.84c-3.02.78-3.41,1.18-6.87,1.8l-18.3,5.69c-2.34,1.01-4.25,1.28-6.42,2.24-1.15.5-1.67.75-2.83,1.17-.71.26-.79.26-1.47.53-10.09,4.03-20.3,8.2-29.67,13.65l-20.88,12.44c-6.32,4.49-13.24,8.51-18.98,13.68-5.45,4.9-11.36,8.73-17.98,15.34-.85.85-1.2,1.17-2.06,1.94l-5.04,4.95c-.67.7-.56.62-1.3,1.37l-3.69,3.64c-10.52,11.47-21.27,23.12-29.52,36.46-1.29,2.09-1.91,2.97-3.21,4.79l-3.78,6.21c-.85,1.29-.13.18-.76,1.24l-.49.85c-.07.12-.17.29-.25.42-.59.98-.33.4-1.01,1.65l-5.83,10.83c-.57,1.17-.64,1.2-1.35,2.64-7.08,14.28-13.23,28.6-18.09,43.89l-5.2,19.46c-.36,2.21-.63,4.49-1.28,6.72-1.19,4.05-1.73,9.45-2.67,13.99l-3.26,30.06c-4.29,0-3.82.77-6.19,3.14-6.9,6.93-2.09,20.85,7.52,20.85h552.5c2.41,0,4.54-1.49,6.36-2.97,5.84-4.78,4.93-15.49-1.07-19.64-2.7-1.86-.69-.46-3.26-1.41-2.94-1.08-2.35-2.21-2.83-5.84l-1.18-15.48c-.06-3.15-.77-4.82-1.31-7.35-.59-2.75-.53-4.55-.97-7.69-1.08-7.71-3.27-13.24-4.58-20.75-.48-2.73-1.28-3.96-1.97-6.69-.22-.88-.36-2.03-.69-3.3-1.96-7.4-5.25-15.41-8-22.66l-19.38-39.94c-9.33-17.24-24.26-34.8-37.5-49.14l-6.54-6.79c-.6-.59-.63-.67-1.32-1.35l-42.69-33.96-57.16-28.15-19.6-6.39c-2.49-.68-4.06-.55-6.6-1.4-2.8-.93-4.3-1.04-7.06-1.61-10.22-2.09-19.05-3.88-29.88-4.78-19.58-1.62-7.15-13.33-.79-21.38,7.11-8.98,13.46-18.51,2.29-27.44l-7.9-4.76c-1.73-.87-.28-.31-1.79-.88-9.47-3.54-19.21-2.83-29.16-2.83-4.05,0-6.12,1.24-9.38,1.95-6.19,1.33-14.81,4.77-17.97,10.69-.51.96-1.97,3.13-1.97,4.02m238.71,284.42c-2.4-4.48-4.69-22.58-6.95-30.41-5.13-17.77-7.01-26.52-15.8-44.77-26.69-55.49-66.05-95.24-121.22-122.68-2.85-1.42-5.78-2.86-8.76-3.91l-24.97-10.26c5.49-.76,27.62,3.8,34.32,5.54,30.38,7.86,58.2,19.33,83.28,38.06,5.87,4.39,9.87,7.29,15.5,11.82,4.34,3.5,9.86,8.85,13.95,12.7,15.75,14.8,34.83,39.26,46.03,61.95,2.5,5.06,6.64,12.8,8.81,18.5l7.14,19.5c1.58,6.5,11.37,38.17,8.51,43.45-2.51,1.01-34.41.6-39.82.51Z"/>
  <path class="uuid-6c5d0ed0-e7c0-4a07-9abc-3e34356b2e80" d="m238.85,615.28c-3.44-1.01-4.42-3.71-5.61-7.22-1.15-3.42-2.85-6.26-2.43-10.24-1.48-7.39-17.83-30.96-23.24-39.36-1.03-1.6-1.17-1.93-2.42-3.58l-54.9-77.06c-.99-1.67-1.35-2-2.41-3.59-4.34-6.45-9.46-15.13-12.31-22.35-.74-1.89-.01-.39-.86-1.81l-3-5.66c-3.55-7.81-7.58-16.37-9.99-24.66l-5.12-17.54c-2.82-9.36-4.55-19.1-6.09-28.57-.87-5.36-.69-10.52-1.66-15.67-.37-1.98-.81-2.81-1.26-4.74l-32.03-.04c-6.71-.12-6.26.9-4.73,15.47l7.04,41.61c.47,1.76,1,2.48,1.4,3.93.49,1.81.43,2.92.9,4.43.58,1.86.87,1.93,1.43,3.9l11.3,31.35c.6,1.37.87,2.21,1.64,3.7.64,1.23.38.61.92,1.74,6.69,13.93,12.29,23.67,20,36.65l13.08,19.58c1.77,2.32,2.72,4.12,4.38,6.29l27.13,36.85c1.83,2.43,3.03,4.07,4.72,6.61,5.7,8.56,12.07,16.43,17.34,25.31l5.95,10.05c.8,1.6,1.03,1.73,1.94,3.39l14.09,29.23c2.21,6.62,4.94,13.23,6.51,20.14.4,1.76.48,3.26.8,4.53.83,3.29,1.78,4.6,2.1,8.56.39,4.74.95,4.82,1.7,8.96.46,2.53.88,8.03,1,10.33.37,6.69,1.42,13.11,1.35,19.97-.1,11.69,3.22,21.24,11.42,28.57l11.17,7.49c10.51,5.15,32.76,3.26,45.39,3.26,19.94,0,155.15.93,160.93-.36,14.37-3.21,23.35-11.26,29.26-24.72,2.03-4.62,2.45-12.55,2.4-18.92-.09-11.49,1.78-26.89,4.41-38.24l10.24-33.08c4.88-10.98,9.94-21.64,15.96-32.02l3.08-4.92c.69-1.14.46-.71,1.06-1.61.87-1.31,1.37-2.26,2.3-3.7,1.55-2.37,2.83-4.2,4.28-6.38l8.7-12.63c1.27-2.02,3.01-4.09,4.54-6.13l48.77-69.2c.63-1.09,1.35-2.01,2.11-3.22l8.88-15.78c.5-1,.48-.89.94-1.73l21.76-53.55c.45-2.09.1-2.61.76-4.57,3.85-11.41,12.23-57.08,8.85-60.46-2.65-1.27-34.67-1.27-37.32,0-.46.96-1.88,10.78-2.3,13.03-.95,5.08-.34,8.97-1.62,13.71-1.64,6.12-2.26,13.34-3.97,19.35-.65,2.28-1.24,3.43-1.82,6.18l-5.41,17.92c-.88,2.08-1.44,3.55-2.34,5.66-.52,1.22-.55,1.04-1.07,2.26-1.98,4.64-3.47,9.58-6,13.99l-10.92,20.4c-4.07,6.89-9,15.72-13.59,21.74l-24.55,34.1c-4.2,6.1-9.47,11.84-13.28,18.05l-9.63,13.69c-2.22,3.33-4.29,6.13-6.63,9.37-6.63,9.19-11.67,19.48-17.55,29.1-4.47,7.31-8.85,18.76-12.4,26.92-3.72,8.55-9.27,27.08-10.33,36.33-.26,2.31-.86,4.22-1.46,6.54-1.77,6.94-3.14,20.3-3.1,28.23.03,5.94-.67,9.26-.67,15.33-10.08,0-76.01-.76-85.27.04-2.15.19-2.76.76-5.25.55-20.29-1.68-68.19-.59-91.42-.59-2.21-4.61-.48-16.59-1.51-24.48-1.17-8.96-4.45-32.12-7.24-40.08l-3.43-10.56c-1.71-4.82-2.52-11.26-5.82-15.37"/>
  <path class="uuid-ed531d15-9dbe-447c-8b61-a142c358a170" d="m24.25,1028.84c13.61.99,65.55.12,83.31.12,8.52,0,83.5-1.58,83.73,1.01.03.29.17.39.2.53l.17,50.04c-2.15-.58-2.12-.96-4.13-3.48-8.4-10.56-16.9-19.1-29.78-24.95-18.37-8.34-45.89-9.27-66.83-3.8-27.44,7.17-49.59,29.02-48.67,60.7,1.02,35.24,25.59,63.56,50.45,73.49,28.95,11.56,61.89,7.8,88.89-8.13,1.89-1.11,7.89-5.43,9.76-5.79.98,9.2-2.21,26.82-.47,34.39.84,1.32,27.6,18.04,33.31,22.01,2.79,1.94,8.56,6.53,12.14,6.94l.07-202.62c5.14-.96,16.78-.33,22.48-.33h249.26c7.19,0,85.34-.62,90.31.36l.13,51.56c-2.24-.43-8.33-9.06-11.75-12.57-13.92-14.31-30.3-22.17-52.67-23.07-27.79-1.12-56.5,4.13-73.34,26.69-8.53-2.04-28.3-29.19-65.63,6.09-2.11,2-4.73,5.36-7.01,6.99-2.21-1.17-9.84-10.72-12.17-13.17-45.62-47.84-97.65-4.85-99.35,37.81-1.58,39.67,29.43,74.63,53.02,99.84,4.46,4.77,21.98,22.77,26.51,25.13,1.78.21,21.79-16.5,22.57-18.33-1.98-2.39-13.54-11.21-17.34-14.57-16.02-14.18-36.34-31.59-43.26-53.87-5.94-19.1-.3-37.73,11.42-48.16,13.72-12.21,35.94-9.72,45.84,4.64.72,2.78-8.16,14.98-8.2,24.38l35.54,23.49c4.38-4.8,14.23-32.41,29.24-43.39,3.48-2.54,11.48-7.26,17.14-6.81.41,10.08.1,20.21,3.48,28.65,3.72,9.3,5.46,14.12,10.45,21.39,26.37,38.37,74.43,46.02,114.34,28.2,3.81-1.7,7.02-3.45,10.42-5.52,2.31-1.41,7.59-5.25,10.33-5.84l-.57,34.48,22.82,14.68c3.29,2.09,20.23,14.04,22.84,14.08.98-15.77.13-34.39.13-50.47v-145.96c-.01-.97-.09-2.46-.03-3.36.15-2.29-.18-1.13.6-2.8,5.64-2.44,35.68.77,45.14-.82-.22-1.71-21.15-36.67-23.9-40.66l-665.12-.2c.22,2.32,9.84,17.41,11.64,20.49,2.11,3.63,9.59,17.38,12.62,20.52m287.75,155.22l-4.39-4.54c-2.1-3.01-2.6-2.94-3.6-5.65-3.69-3.36-11.16-16.97-13.83-22.26-4.47-8.85-6.93-16.13-9.26-26.94-8.42-39.1,28.23-82.23,68.45-67.56,13.34,4.87,21.49,13.86,30.24,23.74,2.17,2.45,5.79,8.26,8.54,9.38,7.27-5.74,14.38-18.59,31.63-24.74,12.46-4.44,22.04-1.25,32.42,5.43,2.15,1.39,6.49,4.77,9.26,5.02.05-.02,13.15-15.55,29.02-21.75,23.58-9.2,62.1-8.22,82.96,6.85,6.53,4.71,21,18.74,24.07,26.04-3.57-.81-5.69-1.83-8.51.86-2.16,2.05-2.55,5.88-.95,8.39,3.06,4.8,12.15,3.59,11.82-5.32l.93-.49c.1-.08.3-.21.39-.31.09-.1.24-.28.32-.37,1.44-1.81.41-57.01.39-63.98-8.86-1.14-294.78-.33-323.05-.27-9.11.02-38.95-1.19-45.76.39l-.05,199.97c-3.92-.69-36.81-22.93-39.08-24.97l.92-38.6c-3.33.82-14.07,8.8-19.08,11.46-23.19,12.32-52.45,15.27-77.02,7.36-25.06-8.06-51.97-36.9-53.02-68.84-.71-21.57,4.36-32.65,16.64-44.52,10.74-10.37,24.89-16.21,41.42-18.9,5.37-.87,24.74-.81,30.09.09,16.16,2.72,30.03,7.83,41.47,19.5,4.06,4.14,11.41,10.96,13.69,16.74-2.37-.11-3.47-.22-5.36.68-.13.06-.31.15-.43.22-8.02,4.47,1.32,17.21,7.96,9.9,1.3-1.43,1.12-2.32,1.67-4.37,1.11-4.11,1.78-1.63,2.13-3.35l-.4-61.69c-.22-2.79-75.73-1.04-84.41-1.06-16.51-.04-72.9,1-84.47-.17-2.35-3.85-19.21-30.06-19.51-34.2l656.55.31c1.94.64,20.35,33.81,20.37,33.91-8.3.64-38.03-1.17-42.67.66l-.36,1.06c-.77,3.49-.25,7.64-.24,11.19v137.96c0,15.41,1.04,34.81-.13,49.74-2.45-.29-38.88-24.27-39.38-25.75l1.41-37.69c-3.88.8-9.74,5.53-13.14,7.62-4.19,2.57-8.54,5.09-12.86,7.05-19.65,8.93-47.35,10.81-68.21,4.69-6.28-1.84-22.56-9.55-25.02-14.45,1.86.12,4.84.46,6.6-.15,1.06-.36.25.35,1.91-1.37,7.07-7.3-3.22-17.16-10.13-10.88-3.2,2.91-2.25,5.61-1.32,9.98-6.68-3.33-17.57-19.34-20.62-26.96-6.56-16.34-5.88-21.41-6.77-40.52-6,.22-14.85,3.6-19.24,6.3-13.05,8-20.3,22.49-27.08,35.48-1.36,2.61-2.33,5.65-4.44,7.56-2.96-1.05-29.43-19.04-31.05-20.65,1.55-7.58,7.06-14.55,8.8-21.99-6.99-15.06-31.36-20.96-47.16-10.71-12.99,8.43-22.42,25.8-18.97,47.24,2.84,17.64,14.94,33.53,24.52,43.34,10.38,10.64,22.19,20.38,33.43,29.87.38.32.71.6,1.08.99.73.75.4.4,1.01,1.25-1.87,3.83-12.8,11.48-16.3,14.3-2.63-1.15-21.43-18.65-22.91-22.51,5.24.55,8.41.7,11.06-2.94,7.85-10.76-16.12-21.85-14.58-.65-4.26-2.15-17.04-17.73-18.38-20.45Zm-128.59-89.58c-1.48-3.49-.84-4.13.76-6.79l7.37.71-1.33,5.97c-1.84.91-4.73,1.1-6.8.11Zm406.11-4.73c3.14-.78,4.13-1.52,7.35-.25.87,2.16.6,3.67-1.47,6.86l-5.47-.14-.41-6.47Zm-108.09,73.89c-.09-2.17-.56-5.43.64-6.69,1.16-1.22,4.79-1.44,6.69-1.28,2.05,1,6.12,8.92-4.23,9.48l-1.86-.65c-1.52-.91-.63-.43-1.24-.87Zm-149.22,39.32c-.18-3.7.59-6.51,3.74-7.66,3.63-1.33,5.65,1.39,8.21,2.94l-.03,4.73-4.69,2.65c-.13.08-.27.22-.41.3l-.99.42c-2.78.61-4.54-1.61-5.83-3.38Z"/>
  <path class="uuid-e7c66de8-a773-45ea-a929-2eb250d368c7" d="m305.5,476.52v64.65c0,14.24,2.79,24.36,8.67,32.65,11.62,16.42,22.66,14.49,22.66,18.66,0,28.05-1.21,12.92-5.36,25.3-.55,1.65-1.31,3.01-1.31,4.69v67.98c0,3.34,11.83,2,17.99,2h19.99c1.62-6.96.67-55.59.67-66.65s-6.66-14.54-6.66-17.33c0-22.86-2.93-14.49,12.14-23.85,7.47-4.65,13.76-14.98,16.62-23.37,1.36-4,2.57-11.9,2.57-17.43v-63.98c0-8.83-.64-14.66-10-14.66-6.69,0-7.37,7.31-7.34,12.66.08,12.46.9,53.27-.66,59.99-6.07,1.45-6-.66-6-10.66l.27-53.65c-1.43-10.85-12.79-10.05-15.76-4.48-1.76,3.29-1.36,4.59-1.2,8.12l.03,42.68c0,4.54,1.06,18.66-2.67,18.66-4.15,0-4.09-1.78-4.04-5.96.12-8.73.92-58.98-.79-62.52-3.61-7.49-12.88-5.13-14.85-1.18-1.89,3.79-.98,44.48-.98,51.67s1.95,17.99-4,17.99c-3.4,0-2.72-3.95-2.68-7.32.11-9.41,1.12-57.12-1.09-61.56-3.33-6.7-16.23-7.42-16.23,6.9"/>
  <path class="uuid-6c5d0ed0-e7c0-4a07-9abc-3e34356b2e80" d="m548.87,301.08c5.41.09,37.31.5,39.82-.51,2.86-5.28-6.92-36.95-8.51-43.45l-7.14-19.5c-2.17-5.71-6.31-13.45-8.81-18.5-11.19-22.69-30.28-47.15-46.03-61.95-4.09-3.84-9.6-9.2-13.95-12.7-5.63-4.53-9.63-7.43-15.5-11.82-25.08-18.73-52.9-30.2-83.28-38.06-6.69-1.73-28.82-6.3-34.32-5.54l24.97,10.26c2.99,1.05,5.91,2.49,8.76,3.91,55.17,27.43,94.53,67.19,121.22,122.68,8.78,18.26,10.67,27,15.8,44.77,2.26,7.83,4.55,25.93,6.95,30.41"/>
  <path class="uuid-e7c66de8-a773-45ea-a929-2eb250d368c7" d="m230.19,785.76c0,5.33.63,10,4.71,14.61,2.3,2.6,7.02,5.38,10.61,5.38h204.6c9.05,0,21.67-16.58,10.17-29.49-2.51-2.82-6.74-5.83-10.17-5.83h-205.27c-6.54,0-14.66,9.45-14.66,15.33"/>
  <path class="uuid-e7c66de8-a773-45ea-a929-2eb250d368c7" d="m240.19,849.07c0,8,3.6,12.19,8.53,15.46,1.37.91,7.38,2.8,8.96,3.07,2.92.5,7.82-.53,11.83-.53h155.95c4.03,0,8.35.97,11.24.62,18.64-2.22,23.71-21.96,12.26-32.12-3.83-3.4-8.86-5.16-14.17-5.16h-174.61c-10.39,0-19.99,6.77-19.99,18.66"/>
  <path class="uuid-e7c66de8-a773-45ea-a929-2eb250d368c7" d="m252.85,905.72c0,7.41-.91,9.28,2.83,14.49.58.8,1.38,1.91,2.05,2.62,1.09,1.16.17.28,1.39,1.28,6.07,4.98,8.55,3.6,18.39,3.6h38.65l5.85,11.47c1.09,1.22,2.01,1.85,4.14,1.85h42.65c1.89,0,2.77-.48,3.83-1.5,1.45-1.39,4.18-8.08,6.17-11.83,4.31,0,49.23.67,52.12-.53,8.33-3.48,14.93-13.54,9.71-24.64-2.46-5.23-6.12-9.27-12.43-10.23-7.99-1.21-154.8-1.18-162.03.07-3.71.64-8.25,3.75-10.4,6.93-.45.67-2.93,5.97-2.93,6.4"/>
  <path class="uuid-e7c66de8-a773-45ea-a929-2eb250d368c7" d="m532.42,1334.92c1.01-6.66.3-19.29.3-26.66,0-22.02,4.86-51.24-22.42-58.17-9.19-2.34-41.25-.94-52.85-.94h-161.95c-17.29,0-36.93-.87-53.93.06-14.33.78-25.92,11.81-27.83,25.27-.85,6.02-.35,44.43-.35,53.78.01,15.32,7.42,27.71,22.63,31.49,9.12,2.27,41.11.89,52.8.89h161.95c17.15,0,37.03.93,53.84-.07,14.6-.87,25.7-11.83,27.79-25.65m-293.76-82.34c7.01-1.28,241.81-.41,261.45-.42,8.39,0,15.01,2.16,19.97,6.16,4.24,3.42,8.32,9.71,9.32,16.65.84,5.82.31,43.4.32,52.62.02,14.5-6.81,27.3-22.53,29.69-7.36,1.12-242.43.39-261.67.35-8.41-.02-15.14-2.08-19.64-6.4-12.68-12.18-9.45-23.64-9.45-42.96,0-22.34-4.84-50.73,22.24-55.68Z"/>
  <path class="uuid-e7c66de8-a773-45ea-a929-2eb250d368c7" d="m318.02,1344.86v-11.8c-1.93.86-4.87,3.6-7.29,5.1-16.89,10.53-49.41,8.76-49.6-29.22-.08-16.34,5.67-28.94,17.74-33.3,6.83-2.46,15.47-2.74,22.7-.74,8.79,2.43,10.8,5.81,16.36,9.15l.13-11.89c-21.06-15.44-68.99-12.57-69.19,36.11-.18,44.76,41.13,54.53,69.16,36.59"/>
  <path class="uuid-e7c66de8-a773-45ea-a929-2eb250d368c7" d="m336.32,1289.78l-.18,9.73c8.28-2.88,13.42-6.08,24.34-4.9,8.52.92,15.86,6.63,14.42,16.13-10.73,0-22.58-.95-31.93,3-17.11,7.23-16.33,37.69,7.82,39.32,17.15,1.16,19.95-7.18,24.38-10.66l.07,9.09h10.35c.87-8.38.18-20.45.18-29.22,0-9.2.09-19.29-4.21-26.08-8.84-13.93-28.24-12.19-45.25-6.4m38.79,29.51c1.19,26.14-21.8,28.72-29.59,21.6-3.84-3.51-6.58-15.41,2.99-19.61,5.35-2.35,20.45-2.93,26.6-1.99Z"/>
  <path class="uuid-e7c66de8-a773-45ea-a929-2eb250d368c7" d="m501.47,1348.33v-9.98c-9.59,3.3-17.82,8.02-30.42,4.93-8.95-2.19-15.78-10.24-15.47-21.51l48.39-.02c0-15.12-2.4-31.08-20.52-35.51-39.46-9.64-50.05,43.36-27.58,60.25,14.28,10.74,29.38,6.51,45.6,1.83m-45.57-34.83c.68-25.19,38.09-25.95,37.33-.06l-37.33.06Z"/>
  <path class="uuid-e7c66de8-a773-45ea-a929-2eb250d368c7" d="m399.2,1294.89l10.09.07.35,56.41h10.06s.01-56.02.01-56.02c5.43-1.71,12.15.61,17.58-.94l-.02-7.42-17.34-.03c-.2-18.84,2.57-15.89,20.14-16.28l-.2-8.79c-22.94-.54-30.51.97-30.64,25.01l-10.08.07.04,7.93Z"/>
  <path class="uuid-ed531d15-9dbe-447c-8b61-a142c358a170" d="m573.1,1070.34c.29-4.33-1.8-7.72-5.87-8.64-4.46-1.01-8.03,1.33-9.34,4.48-1.91,4.6.89,7.74,2.35,10.37-9.01.33-27.61-2.46-35.65,5.92l35.89,62.05c3.2-.43,7.16-3.69,9.48-5.64,8.09-6.75,15.01-14.14,17.37-25.48,3.73-17.94-6.49-30.71-20.76-34.9.65-.72.35-.4,1.23-1.09,2.54-1.97,5-2.45,5.31-7.08m-9.68,6.08c-1.81-.56-2-.87-2.95-2.41-1.78-2.89-1.43-4.74-.08-7.32,1.31-2.5.61-.86,1.83-2.83,13.97-1.48,7.21,10.38,7.11,10.47-.55.28-5.66,2.03-5.92,2.09Zm-34.17,7.38c5.93-4.69,21.65-5.39,31-3.48,29.39,6.01,31.37,33.56,11.96,52.11-1.68,1.6-7.82,6.99-10.12,7.5l-32.84-56.13Z"/>
  <path class="uuid-ed531d15-9dbe-447c-8b61-a142c358a170" d="m508.1,1089.58c-11.09,2.54-36.13,30.5-24.48,54.58,9.53,19.7,40.39,19.23,61.63,9.9.18-3.17-6.91-13.45-8.85-16.67-4.91-8.14-25.56-45.37-28.29-47.82m-.67,4.82c5.8,8.52,11.64,19.98,16.72,28.56,2.22,3.76,16.17,26.73,16.37,29.17-13.74,6.35-44.54,9.58-53.95-9.6-10.46-21.34,13.31-47.88,20.86-48.13Z"/>
  <path class="uuid-ed531d15-9dbe-447c-8b61-a142c358a170" d="m80.24,1149.09c4.13,3.08,2.07,3.11,6.45,5.49l2.55,1.86c16.07,7.58,33.94,2.85,49.44-2.39-1.32-5.13-14.82-26.68-18.53-32.91-3.36-5.64-5.8-10.23-9.31-16.13-2.58-4.34-6.07-11.5-9.27-15.43-10.15,1.58-28.89,23.57-27.77,43.45.27,4.7,3.18,13.78,6.44,16.07m53.11,3.22c-18.94,8.01-46.34,6.67-53.93-10.36-9.36-21.01,12.62-46.1,20.81-47.65,2.49,2.37,21.52,36.2,25.55,43.15,1.88,3.25,7.7,11.71,7.57,14.85Z"/>
  <path class="uuid-ed531d15-9dbe-447c-8b61-a142c358a170" d="m117.92,1081.96c1.35,3.8,34.04,60.15,36.29,62.48,8.79-1.39,37.44-29.39,24.08-51.5-12.86-21.3-48.01-19.48-60.38-10.98m4.95,1.71c5.88-5.36,26.79-4.47,31.44-3.23,9.68,2.57,17.13,7.3,21.25,14.54,11.21,19.7-14.34,44.39-20.68,44.94-2.32-5.04-5.52-9.89-8.05-14.19-2.86-4.86-4.95-8.61-8.1-13.9-2.74-4.59-15.11-24.83-15.87-28.15Z"/>
  <path class="uuid-e7c66de8-a773-45ea-a929-2eb250d368c7" d="m467.49,1278.8c5.03.05,7.32,1,10.03-1.79l16.62-19.87c-13.26-.01-10.2-1.07-16.45,7.39-2.97,4.02-8.16,10.22-10.2,14.27"/>
  <path class="uuid-e7c66de8-a773-45ea-a929-2eb250d368c7" d="m85.57,1162.27c.57-3.43.16-5.96-1.54-7.76-2.17-2.3-5.21-1.46-8.44-1.09-3.89,1.9-4.96,7.95-1.3,11.48,3.44,3.31,10.66,1.68,11.27-2.62"/>
  <path class="uuid-e7c66de8-a773-45ea-a929-2eb250d368c7" d="m340.38,1004.38c-1.26,3.04-1.43,5.08-.01,7.99,1.09-1.15-2.18-1.23,1.96-.83,7.16,10.79,17.17-8.45,5.16-8.77-3.54-.09-3.62.48-5.07,2.51-4.62.34-.44.24-2.03-.9"/>
  <path class="uuid-ed531d15-9dbe-447c-8b61-a142c358a170" d="m211.88,1004.06,0,0c.06.08-.08.29-.06.31l1.42.4c1.64-3.01,4.74-3.1,7.66-1.72,3.46,1.64,5.58,10.17-2.22,11.2-3.01.4-4.58-1.31-6.92-2.57l.11-7.62Z"/>
  <path class="uuid-e7c66de8-a773-45ea-a929-2eb250d368c7" d="m211.88,1004.06l-.11,7.62c2.33,1.26,3.91,2.97,6.92,2.57,7.8-1.03,5.68-9.56,2.22-11.2-2.92-1.38-6.02-1.3-7.66,1.72l-1.42-.4s.13-.22.06-.31"/>
  <path class="uuid-e7c66de8-a773-45ea-a929-2eb250d368c7" d="m563.42,1076.42c.25-.05,5.37-1.81,5.92-2.09.1-.09,6.85-11.95-7.11-10.47-1.22,1.97-.52.33-1.83,2.83-1.35,2.58-1.69,4.43.08,7.32.95,1.54,1.13,1.85,2.95,2.41"/>
  <path class="uuid-e7c66de8-a773-45ea-a929-2eb250d368c7" d="m646.73,1014.53c10.1.95,10.5-9.59,4.84-11.67-3.52-1.29-6.85-.33-7.89,3.18-1.26,4.23.91,6.24,3.05,8.49"/>
  <path class="uuid-ed531d15-9dbe-447c-8b61-a142c358a170" d="m114.82,1064.34c2.22,9.16,18.88,6.17,15.35-5.13-2.83-9.08-18.11-6.24-15.35,5.13m12.24,1.45c-.67.06-11.02,4.64-9.62-4.01.49-3.02-.15-.25.71-2.07.01-.03,1.02-1.64,1.05-1.68,1.82-1.99,5.78-2.5,7.55-.13,1.64,2.21.16,2.51.31,7.89Z"/>
  <path class="uuid-e7c66de8-a773-45ea-a929-2eb250d368c7" d="m466.92,1091.76c-.03.71-.17,1.94-.12,2.6.76,10.16,14.5,6.86,11.75-1.84-.57-1.79-2.36-3.46-5.1-3.61-3.55-.19-4.5,1.42-6.53,2.84"/>
  <path class="uuid-e7c66de8-a773-45ea-a929-2eb250d368c7" d="m617.97,1083.64c1.95.03,3.96.06,5.35-.77,1.44-.86,3.44-3.59,3.16-5.69-.22-1.67-2.02-3.76-3.07-5.21-5.26-.55-5.41-.5-8.54,2.37l-.19,6.05,3.3,3.26Z"/>
  <path class="uuid-e7c66de8-a773-45ea-a929-2eb250d368c7" d="m462.7,1133.11c1.91,1.41,4.05,4.03,7.72,2.89,7.02-2.17,3.97-13.61-4.04-11.46-4.03,1.09-3.84,3.96-3.69,8.56"/>
  <path class="uuid-e7c66de8-a773-45ea-a929-2eb250d368c7" d="m406.28,1094.4c-2.08.49-5.8.65-5.41,6.57.41,6.15,7.34,6.63,10.33,3.08,2.6-3.09,1.03-11.06-4.92-9.65"/>
  <path class="uuid-e7c66de8-a773-45ea-a929-2eb250d368c7" d="m444.12,1084.36c1.86-3.3-1.09-6.89-3.64-7.86-2.91-1.12-3.3-.18-5.34,1.5l-.75.59c-6.11,5.75,3.26,13.64,8.65,7.35,1.6-1.86-1.53,2.04.56-.77l.52-.8Z"/>
  <path class="uuid-e7c66de8-a773-45ea-a929-2eb250d368c7" d="m474.9,1003.02c-4.87,1.55-6.89,5.72-1.41,9.96,4.27,3.3,7.85-.59,8.4-1.57.46-.81.95-4.18.78-4.92-.6-2.59-4.11-4.64-7.77-3.48"/>
  <path class="uuid-e7c66de8-a773-45ea-a929-2eb250d368c7" d="m623.4,1106.57c-12.37-1.46-10.28,8.98-6.3,10.68,4.79,2.04,10.77-.81,8.37-6.97-.43-1.11-1.18-2.68-2.08-3.71"/>
  <path class="uuid-e7c66de8-a773-45ea-a929-2eb250d368c7" d="m514.89,1169.72c-.46,5.86-.02,9.25,6.53,8.66,6.08-.55,4.86-4.22,4.73-8.81l-4.05-2.64c-.39-.08-3.89.26-6.11,1.9-.98.72-.09.16-1.1.9"/>
  <path class="uuid-e7c66de8-a773-45ea-a929-2eb250d368c7" d="m55.76,1125.8c-.52,7.39.96,10.1,8.48,9.48,2.15-1.03,6.31-11.69-3.37-11.6-2.4.02-3.81,1.16-5.11,2.12"/>
  <path class="uuid-ed531d15-9dbe-447c-8b61-a142c358a170" d="m105.77,1173.64c2.17,9.24,16.99,7.8,15.79-3.33-1.1-10.19-18.44-7.94-15.79,3.33m5.13-7.41c3.1-.17,5.18.14,7.9,2.08l.23,6.83-2.8,1.19c-.1.06-.25.2-.35.26-1.3.8.58.14-1.03.63-.12.04-2.31-.04-2.52-.11-3.16-.99-5.72-4.54-3.28-7.33l.69-.52c2.3-2.42-1.15-.47,1.16-3.03Z"/>
  <path class="uuid-e7c66de8-a773-45ea-a929-2eb250d368c7" d="m318.83,1067.85c-.97,1.2-4.31,4.22-3.06,8.19.63,1.98,5.4,6.41,9.99,1.22l.94-1.1c1.29-1.89,1.42-2.53.29-4.56l-3.04-3.03c-1.93-1.23-2.49-.9-5.13-.71"/>
  <path class="uuid-e7c66de8-a773-45ea-a929-2eb250d368c7" d="m68.24,1099.6c9.43-9.18-1.71-13.48-5.13-11.61-.61.75-1.42,2.46-1.87,3.4-2.71,5.7.29,8.29,7,8.21"/>
  <path class="uuid-e7c66de8-a773-45ea-a929-2eb250d368c7" d="m304.82,1100.33c-5.06-8.23-16.96-3.77-10.48,6.41,6.58.81,10.29.08,10.48-6.41"/>
  <path class="uuid-e7c66de8-a773-45ea-a929-2eb250d368c7" d="m144.25,1168.31c1.91,1.86,4.85,5.06,9.18,1.22,2.84-2.51,2.18-2.11,2.15-7.84-7.05-3.64-11.85-3.42-11.32,6.62"/>
  <path class="uuid-e7c66de8-a773-45ea-a929-2eb250d368c7" d="m88.9,1014.64c1.87-.58,4.06-2.29,5.13-3.1l.17-6.42c-12.28-8.73-15.71,8.18-5.3,9.51"/>
  <path class="uuid-e7c66de8-a773-45ea-a929-2eb250d368c7" d="m263.64,1002.93c-2.58-.12-5.93-.49-7.38,1.51-1.37,1.89-1.24,5.27-.07,7.22,3.34,5.6,8.36,2.01,10.64-1.31.32-4.74-.85-5.03-3.18-7.43"/>
  <path class="uuid-e7c66de8-a773-45ea-a929-2eb250d368c7" d="m50.07,1003.86c-3.26-.55-7.6-1.99-9.4.93-1.89,3.07-.11,6.65,1.73,9.47l6.38-.12c.74-1.2,2.49-3.4,2.71-4.58.64-3.36-.83-2.66-1.43-5.7"/>
  <path class="uuid-e7c66de8-a773-45ea-a929-2eb250d368c7" d="m623.4,1151.8c.06-.11.09-.45.11-.37.02.09.09-.3.12-.36l.49-.93c.05-.07.2-.2.26-.27.17-.19,3.88-1.54-.04-7.14-1.64-2.34-2.03-2.07-7.6-1.53-1.7,2.59-3.52,4.57-2,8.39,1.51,3.79,5.2,2.5,8.66,2.2"/>
  <path class="uuid-e7c66de8-a773-45ea-a929-2eb250d368c7" d="m169.57,1004.34l.71,8.06c1.96,1.18,2.7,2.56,5.64,1.76,4.4-1.19,6.25-4.89,4.37-8.58-2.4-4.69-7.62-2.98-10.72-1.25"/>
  <path class="uuid-e7c66de8-a773-45ea-a929-2eb250d368c7" d="m501.4,1073.67c.19-2.27.25-3.77-.5-5.4-3.22-7.04-14.52-1.43-10.84,4.78.76,1.27,3.06,2.35,4.57,2.94l1.55.49c2.54.23,3.63-1.35,5.23-2.81"/>
  <path class="uuid-e7c66de8-a773-45ea-a929-2eb250d368c7" d="m623.4,1048.35c11.09-14.31-15.57-15.14-7.83-.8l7.83.8Z"/>
  <path class="uuid-e7c66de8-a773-45ea-a929-2eb250d368c7" d="m430.13,1003.16c-2.93,4.2-3.5,3.95-1.47,7.93,1.54,3.02,4.7,4.21,7.57,2.73,3.59-1.85,7.13-12.56-6.1-10.66"/>
  <path class="uuid-e7c66de8-a773-45ea-a929-2eb250d368c7" d="m210.75,1072.88c-1.64.87-2.3,1.05-2.67,2.86-.86,4.24,3.92,10.1,8.57,7.11,6.7-4.31,1.37-13.83-5.9-9.97"/>
  <path class="uuid-ed531d15-9dbe-447c-8b61-a142c358a170" d="m205.8,1114.32c2.03,8.69,16.93,7.8,15.8-3.3-1.06-10.38-18.52-8.3-15.8,3.3m2.24-3.33c.2-2.06.95-2.73,2.7-3.54l.99-.38c2.74-.7,6.94.02,7.38,3.94.26,2.33-.08,3.02-1.07,4.45l-1.84,2.21-5.38-.07c-1.22-1.55-3.1-3.38-2.78-6.61Z"/>
  <path class="uuid-ed531d15-9dbe-447c-8b61-a142c358a170" d="m597.17,1150.31c4.09-9.19-11.44-15.92-15.31-5.53-3.54,9.5,10.7,15.87,15.31,5.53m-9.94-7.58c1.49-.81,2.33-1.35,4.6-.28,2.32,1.1,1.09,1.25,3.61,3.19l-.1,4.67c-1.54.99.08-.15-1.3.65-3.79,2.2-.45,1.48-3.37,1.95-1.69.27-3.54-.96-5.99-1.22-.52-6.31-3.57-5.66,2.54-8.97Z"/>
  <path class="uuid-e7c66de8-a773-45ea-a929-2eb250d368c7" d="m395.5,1122.22c-1.03-.5-1.21-.42-2.39-.93-9.77-4.2-9.67,4.55-8.08,7.52,1.56,2.9,11.08,7.09,10.47-6.59"/>
  <path class="uuid-ed531d15-9dbe-447c-8b61-a142c358a170" d="m174.86,1148.31c1.96,9.79,18.2,7.4,15.7-3.74-2.16-9.62-17.94-7.46-15.7,3.74m5.09,3.55c-.61-.93-.96-1.36-1.71-2.28-2.89-3.56-1.03-3.58,1.2-8.14l6.36-.03c2.49,4.96,5.36,2.99.9,10.2l-6.76.25Z"/>
  <path class="uuid-e7c66de8-a773-45ea-a929-2eb250d368c7" d="m332.22,1202.96c1.29,1.77,3.05,4,5.83,3.38l.99-.42c.14-.07.28-.21.41-.3l4.69-2.65.03-4.73c-2.56-1.55-4.57-4.28-8.21-2.94-3.14,1.15-3.91,3.96-3.74,7.66"/>
  <path class="uuid-e7c66de8-a773-45ea-a929-2eb250d368c7" d="m300.83,1003.08c-6.29,9.7,2.3,12.54,6.82,10.12,2.82-1.51,6.52-11.41-6.82-10.12"/>
  <path class="uuid-e7c66de8-a773-45ea-a929-2eb250d368c7" d="m395.44,1012.35c.28-3.55.23-3.08,1.37-5.33-3.18-4.93-2.69-3.65-4.28-3.82-13.01-1.44-7.63,13.4-1.42,10.95,3.42-1.35-1.46-1.2,4.32-1.8"/>
  <path class="uuid-e7c66de8-a773-45ea-a929-2eb250d368c7" d="m600.25,1006.36c-.4,6.77,3.25,9.17,7.72,8,1.89-.49,2.91-2.62,3.4-4.9.72-3.39-.45-3.51-1.24-5.81-6.19-.5-6.74-.87-9.88,2.71"/>
  <path class="uuid-e7c66de8-a773-45ea-a929-2eb250d368c7" d="m513.89,1011.65c1.47.84,2.03,1.1,3.75,1.89,3.67,1.7,6.37-.11,7.42-2.23.81-1.63,2-7.14-3.58-7.84-2.09-.26-4.43.08-6.49.44l-1.1,7.74Z"/>
  <path class="uuid-e7c66de8-a773-45ea-a929-2eb250d368c7" d="m356.02,1070.87c-2.71,1.02-4.89,3.23-4.34,6.61.4,2.44,4.17,5.06,7.06,4.77,3.14-.32,5.2-3.74,3.6-7.99-.06-.16-.14-.33-.2-.48-.06-.15-.14-.32-.2-.47-.17-.37-.38-2.61-3.21-2.97-2.56-.33-2.12.31-2.71.53"/>
  <path class="uuid-e7c66de8-a773-45ea-a929-2eb250d368c7" d="m210.07,1048.39c3.04.16,6.44.52,8.21-1.27,6.22-6.26-7.74-16.37-10.28-4.11l2.06,5.37Z"/>
  <path class="uuid-ed531d15-9dbe-447c-8b61-a142c358a170" d="m521.69,1065.67c2.87,8.92,18.24,5.81,15.49-5.12-2.47-9.8-19.12-6.18-15.49,5.12m11.09-7.34c6.11,3.51-1.13,15.26-7.43,8.11-1.97-2.24-3.64-4.28-.93-7.17,2.34-2.49,6.63-1.62,6.85-1.57,1.43.31.73.06,1.51.63Z"/>
  <path class="uuid-ed531d15-9dbe-447c-8b61-a142c358a170" d="m290.45,1140.32c1.69,9.97,17.57,7.54,15.7-3.22-1.69-9.7-17.67-8.38-15.7,3.22m4.31-6.71l4.98-.15c1.81,3.79-.02,1.43,2.03,2.56.96.53,2.58-.62,2.48,2.84-.07,2.33-2.2,4.85-4.96,5.38-3.64.69-4.7-1.04-4.7-1.04l-.68-.64c-3.7-3.7-1.05-6.08.86-8.95Z"/>
  <path class="uuid-e7c66de8-a773-45ea-a929-2eb250d368c7" d="m562.02,1162.98c-3.05-1.64-4.05-2.83-8.38-1.22-1.41.52-2.44,1.19-2.83,2.78-.39,1.63-.47.56.54,3.02,1.29,3.15,3.4,6.18,8.02,4.06,3.63-1.67,3.15-4.03,2.65-8.64"/>
  <path class="uuid-e7c66de8-a773-45ea-a929-2eb250d368c7" d="m83.51,1068.17c.86,2.62-.17,6.33,2.56,7.55,8.28,3.71,14.32-12.18.65-11.49-1.6,3.48,0,1.81-3.21,3.94"/>
  <path class="uuid-e7c66de8-a773-45ea-a929-2eb250d368c7" d="m161.64,1062.96c-3.96.02-4.78-.55-7.45,2.01-1.56,1.49-.56-.23-1.27,1.59-.43,1.11-.36,1.77-.04,2.9.05.19.13.35.2.52l.78,1.35c2.18,3.39,3.22,3.3,5.28,2.76,7.63-2.02,5.78-6.49,2.5-11.12"/>
  <path class="uuid-ed531d15-9dbe-447c-8b61-a142c358a170" d="m205.8,1148.98c2.11,8.86,17.65,7.51,15.74-3.93-1.65-9.88-18.46-7.53-15.74,3.93m11.27,2.86c-3.37.02-6.13,1.56-8.02-1.75-4.57-7.99,5.95-12.68,8.98-6.86,1.97,3.78.27,5.64-.96,8.61Z"/>
  <path class="uuid-ed531d15-9dbe-447c-8b61-a142c358a170" d="m205.81,1183.64c2.25,8.84,18.3,7.06,15.62-4.52-2.14-9.28-18.47-6.67-15.62,4.52m2.99-6.11c4.42-2.24,7.05-1.64,10.56.92.6,7.28-1.36,9.02-8.47,8.4l-2.25-1.8.16-7.53Z"/>
  <path class="uuid-e7c66de8-a773-45ea-a929-2eb250d368c7" d="m532.78,1058.33c-.79-.57-.08-.32-1.51-.63-.22-.05-4.51-.92-6.85,1.57-2.71,2.89-1.04,4.93.93,7.17,6.3,7.15,13.55-4.6,7.43-8.11"/>
  <path class="uuid-ed531d15-9dbe-447c-8b61-a142c358a170" d="m129.41,1000.74c-10.05,3.08-6.06,18.07,4.57,15.42,9.73-2.43,6.11-18.69-4.57-15.42m-3.37,4.79c2.5-1.21,2.19-1.48,4.19-2.74,3.23.78,6.76.86,7.41,4.36.67,3.63-.59,3.03-2.16,4.48-.1.09-.26.21-.35.31l-1.56,2.31c-4.89.59-3.11-.34-6.64-1.32l-.88-7.4Z"/>
  <path class="uuid-e7c66de8-a773-45ea-a929-2eb250d368c7" d="m558.84,1012.97c10.25,5.15,13.3-8.93,5.9-10.02-4.4-.65-4.27.62-6.78,1.86-.21,4.08-.21,4.91.88,8.15"/>
  <path class="uuid-e7c66de8-a773-45ea-a929-2eb250d368c7" d="m614.72,1184.42c2.41,1.41,5.05,4.56,9.12,1.67,2.96-2.11,1.56-7.57.34-9.84-9.9-.28-9.75.44-9.46,8.16"/>
  <path class="uuid-ed531d15-9dbe-447c-8b61-a142c358a170" d="m150.39,1070.34c2.19,9.28,17.55,8.03,15.92-3.29-1.52-10.6-18.4-7.24-15.92,3.29m11.25-7.38c3.28,4.63,5.13,9.11-2.5,11.12-2.05.54-3.09.63-5.28-2.76l-.78-1.35c-.07-.18-.15-.34-.2-.52-.32-1.12-.39-1.78.04-2.9.7-1.82-.29-.1,1.27-1.59,2.67-2.56,3.49-1.99,7.45-2.01Z"/>
  <path class="uuid-ed531d15-9dbe-447c-8b61-a142c358a170" d="m306.42,1169.54c-.89,12.75,9.36,11.27,12.51,8.86,1.48-1.12.58-.79,2.33-1.9.73-4.8,1.09-9.77-4.16-11.73-5.15-1.92-9.85,1.28-10.68,4.77m2.97-1.39c3.61-.65,3.52-4.22,7.33-.41l2.37,2.35c1.09,1.68.65,1.96.55,4.22l-4.21,2.73s-2.91.33-2.98.33c-5.35.05-3.37-4.48-3.06-9.22Z"/>
  <path class="uuid-ed531d15-9dbe-447c-8b61-a142c358a170" d="m559.71,1001.25c-1.96,1.12-2.94,1.11-3.98,3.47-3.28,7.39,3.91,14.27,10.99,10.91,9.04-4.29,2.2-19.63-7.01-14.38m-.87,11.73c-1.09-3.24-1.09-4.07-.88-8.15,2.51-1.25,2.38-2.51,6.78-1.86,7.4,1.09,4.34,15.17-5.9,10.02Z"/>
  <path class="uuid-e7c66de8-a773-45ea-a929-2eb250d368c7" d="m217.07,1151.84c1.23-2.97,2.93-4.84.96-8.61-3.03-5.81-13.55-1.13-8.98,6.86,1.89,3.31,4.65,1.77,8.02,1.75"/>
  <path class="uuid-e7c66de8-a773-45ea-a929-2eb250d368c7" d="m135.12,1011.94c.09-.1.25-.22.35-.31,1.57-1.45,2.84-.85,2.16-4.48-.65-3.5-4.18-3.58-7.41-4.36-1.99,1.26-1.69,1.53-4.19,2.74l.88,7.4c3.53.98,1.75,1.91,6.64,1.32l1.56-2.31Z"/>
  <path class="uuid-ed531d15-9dbe-447c-8b61-a142c358a170" d="m364.82,1080.34c6-9.11-8.5-17.32-13.82-8.43-5.4,9.01,7.86,17.47,13.82,8.43m-6.09-10c2.83.36,3.04,2.6,3.21,2.97.07.15.14.32.2.47.06.15.14.32.2.48,1.59,4.25-.47,7.67-3.6,7.99-2.88.3-6.66-2.33-7.06-4.77-.55-3.39,1.63-5.59,4.34-6.61.58-.22.15-.86,2.71-.53Z"/>
  <path class="uuid-ed531d15-9dbe-447c-8b61-a142c358a170" d="m96.43,1073.36c4.35-10.51-11.53-15.51-14.8-6.83-4.38,11.63,11.33,15.23,14.8,6.83m-12.92-5.19c3.21-2.13,1.61-.46,3.21-3.94,13.67-.69,7.63,15.2-.65,11.49-2.72-1.22-1.7-4.93-2.56-7.55Z"/>
  <path class="uuid-e7c66de8-a773-45ea-a929-2eb250d368c7" d="m584.69,1151.7c2.45.26,4.29,1.49,5.99,1.22,2.92-.47-.42.25,3.37-1.95,1.38-.8-.24.34,1.3-.65l.1-4.67c-2.52-1.94-1.29-2.09-3.61-3.19-2.27-1.08-3.11-.53-4.6.28-6.11,3.31-3.06,2.66-2.54,8.97"/>
  <path class="uuid-ed531d15-9dbe-447c-8b61-a142c358a170" d="m627.7,1183.64c3.57-10.35-12.51-14.32-15.22-4.97-3.04,10.51,11.65,15.33,15.22,4.97m-12.98.78c-.29-7.72-.44-8.44,9.46-8.16,1.22,2.27,2.62,7.73-.34,9.84-4.07,2.89-6.71-.26-9.12-1.67Z"/>
  <path class="uuid-e7c66de8-a773-45ea-a929-2eb250d368c7" d="m208.81,1177.53l-.16,7.53,2.25,1.8c7.11.62,9.07-1.12,8.47-8.4-3.51-2.56-6.14-3.17-10.56-.92"/>
  <path class="uuid-ed531d15-9dbe-447c-8b61-a142c358a170" d="m311.53,1011.69c4.33-10.58-10.85-15.72-14.7-6.7-4.39,10.28,10.81,16.21,14.7,6.7m-10.7-8.61c13.34-1.29,9.64,8.61,6.82,10.12-4.52,2.42-13.11-.42-6.82-10.12Z"/>
  <path class="uuid-ed531d15-9dbe-447c-8b61-a142c358a170" d="m381.88,1126.99c1.81,9.16,17.31,8.26,16.14-2.6-1.18-10.93-18.27-8.13-16.14,2.6m13.62-4.77c.6,13.68-8.92,9.5-10.47,6.59-1.59-2.96-1.69-11.72,8.08-7.52,1.18.51,1.36.42,2.39.93Z"/>
  <path class="uuid-ed531d15-9dbe-447c-8b61-a142c358a170" d="m205.67,1044.35c1.23,9.38,17.17,9.06,15.94-2.65-1.05-10-17.39-8.47-15.94,2.65m2.34-1.33c2.53-12.27,16.49-2.16,10.28,4.11-1.78,1.79-5.17,1.42-8.21,1.27l-2.06-5.37Z"/>
  <path class="uuid-e7c66de8-a773-45ea-a929-2eb250d368c7" d="m179.94,1151.87l6.76-.25c4.46-7.21,1.59-5.24-.9-10.2l-6.36.03c-2.23,4.56-4.09,4.58-1.2,8.14.75.92,1.1,1.34,1.71,2.28"/>
  <path class="uuid-ed531d15-9dbe-447c-8b61-a142c358a170" d="m512.02,1010.36c1.66,9.51,18.04,7.44,15.58-3.95-2.07-9.54-17.59-7.57-15.58,3.95m2.96-6.44c2.06-.36,4.39-.7,6.49-.44,5.58.7,4.39,6.2,3.58,7.84-1.05,2.13-3.75,3.93-7.42,2.23-1.71-.79-2.28-1.06-3.75-1.89l1.1-7.74Z"/>
  <path class="uuid-ed531d15-9dbe-447c-8b61-a142c358a170" d="m397.94,1011.02c3.87-10.03-11.45-15.1-14.97-5.73-3.78,10.07,10.88,16.35,14.97,5.73m-2.5,1.33c-5.78.59-.91.45-4.32,1.8-6.21,2.45-11.59-12.39,1.42-10.95,1.58.18,1.1-1.11,4.28,3.82-1.13,2.25-1.09,1.77-1.37,5.33Z"/>
  <path class="uuid-e7c66de8-a773-45ea-a929-2eb250d368c7" d="m294.75,1133.6c-1.9,2.86-4.55,5.24-.86,8.95l.68.64s1.06,1.74,4.7,1.04c2.76-.53,4.89-3.04,4.96-5.38.1-3.46-1.53-2.31-2.48-2.84-2.04-1.13-.21,1.23-2.03-2.56l-4.98.15Z"/>
  <path class="uuid-ed531d15-9dbe-447c-8b61-a142c358a170" d="m548.78,1168.31c1.91,9.51,18.73,6.96,15.61-4.34-2.47-8.96-17.86-6.87-15.61,4.34m13.24-5.33c.5,4.61.98,6.97-2.65,8.64-4.61,2.12-6.73-.91-8.02-4.06-1.01-2.46-.93-1.4-.54-3.02.38-1.59,1.42-2.26,2.83-2.78,4.33-1.6,5.34-.42,8.38,1.22Z"/>
  <path class="uuid-ed531d15-9dbe-447c-8b61-a142c358a170" d="m603.41,1000.92c-10.46,4.14-4.48,18.53,5.61,15.03,9.58-3.32,4.29-18.95-5.61-15.03m-3.16,5.44c3.14-3.59,3.7-3.21,9.88-2.71.79,2.3,1.96,2.41,1.24,5.81-.48,2.28-1.51,4.4-3.4,4.9-4.47,1.17-8.12-1.23-7.72-8Z"/>
  <path class="uuid-ed531d15-9dbe-447c-8b61-a142c358a170" d="m205.9,1080.34c2.58,8.23,18.44,6.63,15.49-5.22-2.27-9.12-19.04-6.12-15.49,5.22m4.85-7.46c7.27-3.86,12.6,5.65,5.9,9.97-4.65,2.99-9.43-2.86-8.57-7.11.37-1.81,1.03-1.99,2.67-2.86Z"/>
  <path class="uuid-ed531d15-9dbe-447c-8b61-a142c358a170" d="m73.36,1097.52c5.14-9-9.57-17.14-14.42-7.84-5.47,10.47,9.59,16.29,14.42,7.84m-5.12,2.08c-6.71.09-9.71-2.51-7-8.21.45-.95,1.27-2.66,1.87-3.4,3.41-1.87,14.55,2.43,5.13,11.61Z"/>
  <path class="uuid-ed531d15-9dbe-447c-8b61-a142c358a170" d="m41.76,1001.03c-9.73,6.04-1.74,19.55,7.57,14.42,9.9-5.46.4-19.36-7.57-14.42m8.31,2.83c.6,3.04,2.07,2.34,1.43,5.7-.22,1.18-1.97,3.37-2.71,4.58l-6.38.12c-1.84-2.81-3.62-6.4-1.73-9.47,1.8-2.92,6.14-1.48,9.4-.93Z"/>
  <path class="uuid-e7c66de8-a773-45ea-a929-2eb250d368c7" d="m210.82,1117.61l5.38.07,1.84-2.21c.99-1.42,1.33-2.12,1.07-4.45-.44-3.91-4.63-4.63-7.38-3.94l-.99.38c-1.75.81-2.5,1.47-2.7,3.54-.32,3.24,1.56,5.06,2.78,6.61"/>
  <path class="uuid-ed531d15-9dbe-447c-8b61-a142c358a170" d="m627.38,1150.31c5.05-10.38-10.93-16.09-14.74-6.86-4.05,9.82,10.15,16.31,14.74,6.86m-3.05-7.58c3.92,5.6.21,6.95.04,7.14-.06.07-.21.2-.26.27l-.49.93c-.02.05-.1.44-.12.36-.02-.09-.05.25-.11.37-3.47.3-7.15,1.59-8.66-2.2-1.53-3.82.3-5.81,2-8.39,5.57-.55,5.96-.81,7.6,1.53Z"/>
  <path class="uuid-ed531d15-9dbe-447c-8b61-a142c358a170" d="m258.24,1000.97c-10.24,4.33-4.49,18.14,5.79,15.07,9.2-2.75,4.77-19.54-5.79-15.07m5.4,1.96c2.34,2.4,3.5,2.69,3.18,7.43-2.28,3.32-7.3,6.9-10.64,1.31-1.16-1.95-1.3-5.33.07-7.22,1.45-2,4.8-1.64,7.38-1.51Z"/>
  <path class="uuid-ed531d15-9dbe-447c-8b61-a142c358a170" d="m487.94,1073c1.73,9.51,18.12,7.52,15.62-3.97-2.02-9.3-17.75-7.71-15.62,3.97m13.46.67c-1.59,1.46-2.69,3.05-5.23,2.81l-1.55-.49c-1.51-.59-3.81-1.67-4.57-2.94-3.68-6.21,7.62-11.81,10.84-4.78.75,1.63.69,3.13.5,5.4Z"/>
  <path class="uuid-ed531d15-9dbe-447c-8b61-a142c358a170" d="m172.17,1000.86c-10.29,3.86-4.67,18.84,5.64,15.07,9.51-3.48,4.38-18.83-5.64-15.07m-2.6,3.48c3.1-1.73,8.32-3.44,10.72,1.25,1.89,3.68.04,7.38-4.37,8.58-2.94.8-3.68-.58-5.64-1.76l-.71-8.06Z"/>
  <path class="uuid-ed531d15-9dbe-447c-8b61-a142c358a170" d="m142.19,1168.31c2.89,8.99,19.51,4.83,15.02-6.25-3.58-8.85-18.55-4.72-15.02,6.25m2.07,0c-.52-10.04,4.27-10.26,11.32-6.62.04,5.73.69,5.33-2.15,7.84-4.32,3.83-7.26.63-9.18-1.22Z"/>
  <path class="uuid-ed531d15-9dbe-447c-8b61-a142c358a170" d="m313.79,1077c1.1,3.04,5.72,6.21,10.7,4.38,3.36-1.24,6.01-5.13,4.65-10.04-2.69-9.69-19.36-5.48-15.35,5.66m5.04-9.16c2.64-.19,3.2-.52,5.13.71l3.04,3.03c1.14,2.03,1,2.67-.29,4.56l-.94,1.1c-4.58,5.19-9.36.76-9.99-1.22-1.25-3.97,2.09-6.99,3.06-8.19Z"/>
  <path class="uuid-ed531d15-9dbe-447c-8b61-a142c358a170" d="m80.48,1009.69c1.59,9.48,17.31,9.17,15.9-2.66-1.24-10.43-17.66-7.86-15.9,2.66m8.42,4.95c-10.41-1.33-6.98-18.24,5.3-9.51l-.17,6.42c-1.07.81-3.26,2.52-5.13,3.1Z"/>
  <path class="uuid-ed531d15-9dbe-447c-8b61-a142c358a170" d="m627.44,1046.35c4.44-10.08-9.96-15.59-14.25-7.53-5.64,10.6,10.06,17.05,14.25,7.53m-4.04,2l-7.83-.8c-7.74-14.35,18.92-13.52,7.83.8Z"/>
  <path class="uuid-ed531d15-9dbe-447c-8b61-a142c358a170" d="m468.65,1009.69c1.71,10.33,17.77,8.16,16.11-2.57-1.61-10.44-17.87-8.02-16.11,2.57m6.25-6.67c3.66-1.16,7.17.89,7.77,3.48.17.74-.33,4.11-.78,4.92-.55.97-4.13,4.87-8.4,1.57-5.48-4.24-3.46-8.41,1.41-9.96Z"/>
  <path class="uuid-ed531d15-9dbe-447c-8b61-a142c358a170" d="m430.84,1000.97c-10.07,4.27-4.78,17.76,5.09,15.16,9.95-2.61,5.32-19.58-5.09-15.16m-.71,2.19c13.23-1.9,9.68,8.8,6.1,10.66-2.87,1.48-6.03.29-7.57-2.73-2.02-3.98-1.46-3.73,1.47-7.93Z"/>
  <path class="uuid-ed531d15-9dbe-447c-8b61-a142c358a170" d="m290.61,1103.66c1.84,9.35,18.75,7.42,15.51-4.57-2.35-8.67-17.71-6.61-15.51,4.57m14.21-3.33c-.19,6.49-3.9,7.22-10.48,6.41-6.47-10.18,5.42-14.64,10.48-6.41Z"/>
  <path class="uuid-ed531d15-9dbe-447c-8b61-a142c358a170" d="m627.41,1115.66c4.88-10.4-10.94-16.05-14.73-6.79-4.12,10.06,10.41,16.02,14.73,6.79m-4.01-9.09c.89,1.03,1.64,2.6,2.08,3.71,2.4,6.16-3.58,9.01-8.37,6.97-3.99-1.7-6.08-12.14,6.3-10.68Z"/>
  <path class="uuid-e7c66de8-a773-45ea-a929-2eb250d368c7" d="m118.79,1168.31c-2.72-1.94-4.8-2.24-7.9-2.08-2.31,2.56,1.14.61-1.16,3.03l-.69.52c-2.44,2.78.12,6.33,3.28,7.33.2.06,2.4.14,2.52.11,1.62-.48-.27.17,1.03-.63.1-.06.25-.19.35-.26l2.8-1.19-.23-6.83Z"/>
  <path class="uuid-e7c66de8-a773-45ea-a929-2eb250d368c7" d="m309.39,1168.15c-.31,4.73-2.28,9.27,3.06,9.22.07,0,2.97-.33,2.98-.33l4.21-2.73c.1-2.25.53-2.54-.55-4.22l-2.37-2.35c-3.81-3.81-3.72-.25-7.33.41"/>
  <path class="uuid-ed531d15-9dbe-447c-8b61-a142c358a170" d="m460.22,1132.32c2.42,9.8,18.28,7.03,15.87-3.81-2.35-10.53-18.39-6.4-15.87,3.81m2.47.8c-.16-4.61-.35-7.48,3.69-8.56,8.01-2.16,11.05,9.29,4.04,11.46-3.67,1.14-5.81-1.49-7.72-2.89Z"/>
  <path class="uuid-ed531d15-9dbe-447c-8b61-a142c358a170" d="m53.68,1131.65c2.13,8.78,17.9,7.52,15.35-4.62-1.92-9.15-18.16-6.95-15.35,4.62m2.08-5.86c1.29-.96,2.71-2.1,5.11-2.12,9.68-.08,5.52,10.57,3.37,11.6-7.52.62-9-2.09-8.48-9.48Z"/>
  <path class="uuid-ed531d15-9dbe-447c-8b61-a142c358a170" d="m512.67,1174.97c2.37,9.28,18.31,6.74,15.5-4.6-2.3-9.27-18.33-6.5-15.5,4.6m2.22-5.25c1.01-.73.12-.17,1.1-.9,2.22-1.64,5.72-1.98,6.11-1.9l4.05,2.64c.13,4.59,1.35,8.25-4.73,8.81-6.56.6-6.99-2.79-6.53-8.66Z"/>
  <path class="uuid-ed531d15-9dbe-447c-8b61-a142c358a170" d="m480.57,1097.66c1.95-4.38-1.42-9.14-4.09-10.29-4.8-2.07-9.43.26-10.88,3.87-4.4,10.98,10.74,15.92,14.97,6.42m-13.65-5.9c2.03-1.43,2.98-3.04,6.53-2.84,2.75.15,4.54,1.82,5.1,3.61,2.75,8.7-10.99,12-11.75,1.84-.05-.66.08-1.89.12-2.6Z"/>
  <path class="uuid-ed531d15-9dbe-447c-8b61-a142c358a170" d="m445.51,1085.67c4.77-10.59-10.86-15.78-14.48-6.99-4.3,10.44,10.27,16.35,14.48,6.99m-1.39-1.3l-.52.8c-2.09,2.81,1.04-1.09-.56.77-5.39,6.29-14.76-1.6-8.65-7.35l.75-.59c2.04-1.68,2.44-2.61,5.34-1.5,2.54.98,5.5,4.57,3.64,7.86Z"/>
  <path class="uuid-ed531d15-9dbe-447c-8b61-a142c358a170" d="m398.9,1102.33c1.74,9.16,17.7,8.01,15.46-4.03-1.71-9.23-17.69-7.67-15.46,4.03m7.38-7.93c5.95-1.41,7.52,6.56,4.92,9.65-2.99,3.55-9.92,3.07-10.33-3.08-.39-5.92,3.33-6.07,5.41-6.57Z"/>
  <path class="uuid-ed531d15-9dbe-447c-8b61-a142c358a170" d="m627.59,1080.34c4.16-10.74-12.2-14.36-15.07-5.69-3.41,10.27,11.15,15.8,15.07,5.69m-9.62,3.3l-3.3-3.26.19-6.05c3.14-2.87,3.29-2.92,8.54-2.37,1.05,1.46,2.85,3.55,3.07,5.21.28,2.1-1.72,4.84-3.16,5.69-1.39.83-3.4.8-5.35.77Z"/>
  <path class="uuid-e7c66de8-a773-45ea-a929-2eb250d368c7" d="m127.06,1065.79c-.15-5.38,1.33-5.69-.31-7.89-1.77-2.38-5.73-1.86-7.55.13-.03.04-1.04,1.65-1.05,1.68-.86,1.82-.22-.95-.71,2.07-1.41,8.65,8.95,4.07,9.62,4.01"/>
  <path class="uuid-ed531d15-9dbe-447c-8b61-a142c358a170" d="m641.44,1010.36c1.97,9.33,17.65,7.87,15.46-3.99-1.75-9.47-17.87-7.47-15.46,3.99m5.29,4.17c-2.15-2.24-4.31-4.26-3.05-8.49,1.04-3.51,4.37-4.47,7.89-3.18,5.66,2.08,5.26,12.62-4.84,11.67Z"/>
  <path class="uuid-ed531d15-9dbe-447c-8b61-a142c358a170" d="m340.38,1004.38c1.6,1.14-2.59,1.25,2.03.9,1.46-2.03,1.53-2.6,5.07-2.51,12,.32,2,19.55-5.16,8.77-4.14-.39-.87-.32-1.96.83,4.5,7.31,15.01,4.15,15.08-4.02.06-7.89-10.43-11.3-15.07-3.97"/>
  <path class="uuid-e7c66de8-a773-45ea-a929-2eb250d368c7" d="m481.44,1163.64c.61.44-.27-.04,1.24.87l1.86.65c10.35-.56,6.28-8.48,4.23-9.48-1.9-.16-5.53.05-6.69,1.28-1.2,1.26-.73,4.52-.64,6.69"/>
  <path class="uuid-e7c66de8-a773-45ea-a929-2eb250d368c7" d="m183.41,1094.47c2.08.99,4.97.8,6.8-.11l1.33-5.97-7.37-.71c-1.61,2.66-2.24,3.3-.76,6.79"/>
  <path class="uuid-e7c66de8-a773-45ea-a929-2eb250d368c7" d="m589.53,1089.75l.41,6.47,5.47.14c2.07-3.19,2.34-4.7,1.47-6.86-3.23-1.28-4.22-.53-7.35.25"/>
  <path class="uuid-f6f7efba-c2fb-4581-bb60-cdd398eef651" d="m238.85,615.28l-.98-3.16c-1.3-2.84-5.26-13.04-7.06-14.3-.41,3.98,1.28,6.82,2.43,10.24,1.19,3.51,2.17,6.22,5.61,7.22"/>
  <path class="uuid-6c5d0ed0-e7c0-4a07-9abc-3e34356b2e80" d="m255.52,597.82l.2-.2s-.27.13-.2.2"/>
</svg>