<?xml version="1.0" encoding="UTF-8"?>
<svg id="uuid-bf6c7acd-a0ee-4ddd-bd61-9a7c55d14d97" data-name="Layer 1" xmlns="http://www.w3.org/2000/svg" xmlns:xlink="http://www.w3.org/1999/xlink" viewBox="0 0 505.64 191.25">
  <defs>
    <style>
      .uuid-9c8a1767-e9b9-4d09-afdd-35b843e3f65d {
        fill: url(#uuid-355d0689-3e8d-4b18-950d-eb93db904bc2);
      }

      .uuid-9c8a1767-e9b9-4d09-afdd-35b843e3f65d, .uuid-5a231083-006c-47ff-970f-58f65787d99e, .uuid-fae7661a-dba1-49b5-9b22-cfcd7f4fca63 {
        stroke-width: 0px;
      }

      .uuid-5a231083-006c-47ff-970f-58f65787d99e {
        fill: url(#uuid-49199f95-05ea-4147-84ef-189a8ff78b7b);
      }

      .uuid-fae7661a-dba1-49b5-9b22-cfcd7f4fca63 {
        fill: #ffe878;
      }
    </style>
    <linearGradient id="uuid-49199f95-05ea-4147-84ef-189a8ff78b7b" x1="0" y1="148.96" x2="505.64" y2="148.96" gradientUnits="userSpaceOnUse">
      <stop offset="0" stop-color="#ffe878" stop-opacity="0"/>
      <stop offset=".49" stop-color="#ffe878"/>
      <stop offset="1" stop-color="#ffe878" stop-opacity="0"/>
    </linearGradient>
    <linearGradient id="uuid-355d0689-3e8d-4b18-950d-eb93db904bc2" x1="252.82" y1="0" x2="252.82" y2="172.1" gradientUnits="userSpaceOnUse">
      <stop offset=".35" stop-color="#ffe878"/>
      <stop offset=".59" stop-color="#ffe878" stop-opacity="0"/>
    </linearGradient>
  </defs>
  <g>
    <path class="uuid-fae7661a-dba1-49b5-9b22-cfcd7f4fca63" d="m203.76,99.7s8.71,6.01,8.71,12.13c0,9.21-9.81,11.8-16.04,11.8-3.86,0-9.04-1.38-14.11-4.63v4.47h-1.05v-22.16h1.05v8.54c.99,8.88,7.88,12.62,13.62,12.62,4.19,0,8.6-2.1,8.6-8.1,0-4.47-4.08-7.17-7.66-10.03l-9.48-7.28s-6.12-4.02-6.12-10.64c0-7.99,8.43-11.36,14.72-11.36,3.75,0,8.49,1.65,12.73,4.85v-4.69h1.05v19.46h-1.05v-6.62c-.39-7.39-6.06-11.85-12.35-11.85-3.31,0-8.16,1.87-8.16,7.66,0,3.86,4.36,6.95,6.62,8.88l8.93,6.95Z"/>
    <path class="uuid-fae7661a-dba1-49b5-9b22-cfcd7f4fca63" d="m228.73,122.41v1.05h-13.89v-1.05c1.76,0,3.25-1.49,3.25-3.25v-23.15c0-1.82-1.49-3.25-3.25-3.25v-1.05l10.64-1.65v29.11c0,.88.39,1.71.94,2.26.61.61,1.43.99,2.32.99Zm-11.96-44.02c0-2.59,2.09-4.63,4.69-4.63s4.63,2.04,4.63,4.63-2.09,4.63-4.63,4.63-4.69-2.09-4.69-4.63Z"/>
    <path class="uuid-fae7661a-dba1-49b5-9b22-cfcd7f4fca63" d="m249.07,94.85c-3.03,0-6.06,3.2-7.61,7.33v16.98c0,.88.33,1.65.94,2.26s1.43.94,2.32.94v1.1h-13.89v-1.1c1.76,0,3.2-1.43,3.2-3.2v-22.66c0-1.82-1.43-3.25-3.2-3.25v-1.05l10.64-1.65v9.65c1.87-4.74,5.18-10.31,11.03-10.31,1.54,0,2.87.61,4.02,1.1l-3.09,8.38c-.61-2.37-1.65-4.52-4.36-4.52Z"/>
    <path class="uuid-fae7661a-dba1-49b5-9b22-cfcd7f4fca63" d="m288.59,119.93c.72,1.49,2.26,2.43,3.91,2.43v1.1h-13.89v-1.1c1.05,0,1.82-.88,1.82-1.82,0-.28-.06-.5-.17-.77l-8.71-16.04-4.41,3.69v11.74c0,.88.33,1.65.94,2.26.61.61,1.38.94,2.26.94v1.1h-13.89v-1.1c1.82,0,3.25-1.43,3.25-3.2v-38.53c0-1.76-1.43-3.25-3.25-3.25v-1.05l10.69-1.65v31.31l13.18-11.14c.44-.39.61-.88.61-1.38,0-.94-.72-1.87-1.82-1.87v-1.05h9.59v1.05c-1.93,0-3.8.72-5.24,1.93l-6.06,5.24,11.19,21.17Z"/>
    <path class="uuid-fae7661a-dba1-49b5-9b22-cfcd7f4fca63" d="m324.37,117.89c-.55,1.93-2.54,5.57-6.78,5.57-4.8,0-5.73-3.2-5.73-6.56v.06c-2.92,3.36-6.84,6.45-11.74,6.45-3.69,0-8.27-2.48-8.27-8.1,0-10.42,13.67-12.02,20.01-13.67v-1.54c0-5.29-2.15-8.49-5.68-8.49-3.09,0-5.68,2.32-5.68,6.89,0,.88.11,1.87.33,2.98-5.84-2.98-7.77-3.75-7.77-3.75,3.58-7.11,12.79-7.17,13.07-7.17,7.72,0,13.12,3.42,13.12,11.14v15.11c0,2.48.88,3.42,1.93,3.42,1.43,0,2.15-1.21,2.65-2.65,0,0,.06.06.55.33Zm-12.51-2.65v-12.62c-4.63,1.98-12.62,4.58-12.62,13.29,0,1.87,1.16,4.96,4.3,4.96s6.01-2.7,8.32-5.62Z"/>
    <polygon class="uuid-fae7661a-dba1-49b5-9b22-cfcd7f4fca63" points="222.83 82.81 267.15 75.64 267.15 74.67 225.21 81.16 222.83 82.81"/>
  </g>
  <path class="uuid-fae7661a-dba1-49b5-9b22-cfcd7f4fca63" d="m96.77,170.7h8.82v1.43h-3.64v13.56h-1.54v-13.56h-3.64v-1.43Z"/>
  <path class="uuid-fae7661a-dba1-49b5-9b22-cfcd7f4fca63" d="m115.62,185.74v-16.54h1.54v8.5c.32-.54.73-.99,1.23-1.33.53-.36,1.14-.54,1.83-.54s1.25.1,1.68.3c.43.2.79.47,1.08.82.59.69.88,1.6.88,2.72v6.06h-1.54v-6.06c0-.63-.14-1.17-.43-1.62-.29-.45-.76-.67-1.42-.67s-1.2.11-1.61.32c-.41.21-.75.51-1,.9-.46.7-.69,1.73-.69,3.08v4.06h-1.54Z"/>
  <path class="uuid-fae7661a-dba1-49b5-9b22-cfcd7f4fca63" d="m144.26,181.48h-8.53c.15.83.55,1.52,1.21,2.05.67.54,1.42.82,2.25.82.56,0,1.09-.13,1.6-.39.51-.26.93-.61,1.27-1.07h1.76c-.41.93-1.03,1.66-1.86,2.19-.83.54-1.68.8-2.54.8s-1.59-.13-2.21-.4c-.61-.26-1.15-.62-1.61-1.08-.99-.98-1.49-2.17-1.49-3.57s.5-2.59,1.49-3.58c.99-.99,2.19-1.49,3.58-1.49s2.54.48,3.54,1.43c1.02.97,1.53,2.13,1.53,3.46v.82Zm-2.88-3.37c-.64-.53-1.37-.79-2.19-.79-1.26,0-2.25.57-2.98,1.71-.22.35-.37.72-.46,1.14h6.88c-.18-.83-.59-1.51-1.25-2.05Z"/>
  <path class="uuid-fae7661a-dba1-49b5-9b22-cfcd7f4fca63" d="m180.12,175.07l-4.5,11.55-4.52-11.55-2.31,10.67h-1.59l3.51-15.99,4.92,12.83,4.92-12.83,3.48,15.99h-1.57l-2.34-10.67Z"/>
  <path class="uuid-fae7661a-dba1-49b5-9b22-cfcd7f4fca63" d="m193.19,191.25l3.26-7.1-4.06-8.11h1.76l3.11,6.5,2.78-6.5h1.72l-6.7,15.21h-1.87Z"/>
  <path class="uuid-fae7661a-dba1-49b5-9b22-cfcd7f4fca63" d="m214.05,184.75c1.41,0,2.12-.53,2.12-1.58,0-.62-.51-1.09-1.52-1.42-.43-.14-.88-.27-1.38-.39-.49-.12-.95-.28-1.39-.48-.5-.23-.87-.52-1.12-.88-.25-.35-.37-.77-.37-1.25,0-.96.34-1.69,1.02-2.19.68-.5,1.49-.74,2.43-.74s1.72.19,2.35.58c.62.38,1.03,1.06,1.24,2.04h-1.65c-.16-.54-.42-.9-.75-1.08-.34-.18-.74-.27-1.22-.27s-.89.1-1.24.31c-.35.21-.53.54-.53.97s.15.76.44.96c.29.2.64.37,1.07.5.43.13.89.26,1.38.37.5.11.96.27,1.39.47,1,.48,1.5,1.24,1.5,2.28s-.37,1.82-1.12,2.31c-.38.25-.79.44-1.25.56-.45.12-.94.19-1.47.19-2.25,0-3.54-1-3.88-3h1.63c.16.63.44,1.07.83,1.33.39.26.89.39,1.5.39Z"/>
  <path class="uuid-fae7661a-dba1-49b5-9b22-cfcd7f4fca63" d="m226.73,176.04h2.43v-3.77h1.54v3.77h2.4v1.43h-2.4v8.27h-1.54v-8.27h-2.43v-1.43Z"/>
  <path class="uuid-fae7661a-dba1-49b5-9b22-cfcd7f4fca63" d="m244.99,173.38c0,.27-.1.5-.29.69-.19.19-.42.29-.7.29s-.5-.1-.69-.29-.29-.42-.29-.69.1-.5.29-.69c.19-.19.42-.29.69-.29s.5.1.7.29c.19.19.29.42.29.69Zm-1.74,12.36v-9.7h1.54v9.7h-1.54Z"/>
  <path class="uuid-fae7661a-dba1-49b5-9b22-cfcd7f4fca63" d="m263.51,179.52c-.27-.62-.68-1.12-1.23-1.5s-1.12-.57-1.7-.57-1.07.09-1.48.28c-.41.18-.77.43-1.07.75-.65.69-.98,1.49-.98,2.41s.33,1.75.98,2.44c.65.68,1.45,1.03,2.39,1.03.62,0,1.19-.16,1.71-.49.52-.32.93-.76,1.22-1.3h1.74c-.55,1.55-1.6,2.6-3.15,3.14-.49.17-1.04.25-1.65.25s-1.23-.14-1.83-.41c-.6-.27-1.12-.64-1.57-1.1-.96-1-1.43-2.19-1.43-3.56s.48-2.56,1.43-3.55c.97-1,2.14-1.5,3.53-1.5,1.11,0,2.12.35,3.01,1.04.86.67,1.45,1.55,1.75,2.65h-1.68Z"/>
  <path class="uuid-fae7661a-dba1-49b5-9b22-cfcd7f4fca63" d="m297.61,178.54c-.82.76-1.81,1.18-2.97,1.26l4.62,5.94h-2.07l-4.4-5.93h-1.8v5.93h-1.54v-14.99h4.81c1.34,0,2.46.42,3.36,1.27.93.87,1.4,1.95,1.4,3.25s-.47,2.4-1.4,3.27Zm-3.14-.21c.87,0,1.58-.29,2.14-.88.57-.6.86-1.34.86-2.22s-.27-1.59-.82-2.16c-.54-.57-1.27-.85-2.18-.85h-3.48v6.11h3.48Z"/>
  <path class="uuid-fae7661a-dba1-49b5-9b22-cfcd7f4fca63" d="m318.86,181.48h-8.53c.15.83.55,1.52,1.21,2.05.67.54,1.42.82,2.25.82.56,0,1.09-.13,1.6-.39.51-.26.93-.61,1.27-1.07h1.76c-.41.93-1.03,1.66-1.86,2.19-.83.54-1.68.8-2.54.8s-1.59-.13-2.2-.4c-.61-.26-1.15-.62-1.61-1.08-.99-.98-1.49-2.17-1.49-3.57s.5-2.59,1.49-3.58c.99-.99,2.19-1.49,3.58-1.49s2.54.48,3.54,1.43c1.02.97,1.53,2.13,1.53,3.46v.82Zm-2.88-3.37c-.64-.53-1.37-.79-2.19-.79-1.26,0-2.25.57-2.98,1.71-.22.35-.37.72-.46,1.14h6.88c-.18-.83-.59-1.51-1.25-2.05Z"/>
  <path class="uuid-fae7661a-dba1-49b5-9b22-cfcd7f4fca63" d="m336.72,179.52c-.26-.62-.68-1.12-1.23-1.5s-1.12-.57-1.7-.57-1.07.09-1.48.28-.77.43-1.07.75c-.65.69-.98,1.49-.98,2.41s.33,1.75.98,2.44c.65.68,1.45,1.03,2.39,1.03.62,0,1.19-.16,1.71-.49.52-.32.93-.76,1.22-1.3h1.74c-.55,1.55-1.6,2.6-3.15,3.14-.49.17-1.04.25-1.65.25s-1.23-.14-1.83-.41c-.6-.27-1.12-.64-1.57-1.1-.95-1-1.43-2.19-1.43-3.56s.48-2.56,1.43-3.55c.97-1,2.14-1.5,3.53-1.5,1.11,0,2.11.35,3.01,1.04.86.67,1.45,1.55,1.75,2.65h-1.68Z"/>
  <path class="uuid-fae7661a-dba1-49b5-9b22-cfcd7f4fca63" d="m350.61,173.38c0,.27-.1.5-.29.69s-.42.29-.69.29-.5-.1-.69-.29-.29-.42-.29-.69.1-.5.29-.69c.19-.19.42-.29.69-.29s.5.1.69.29c.19.19.29.42.29.69Zm-1.74,12.36v-9.7h1.54v9.7h-1.54Z"/>
  <path class="uuid-fae7661a-dba1-49b5-9b22-cfcd7f4fca63" d="m361.75,191.25v-15.21h1.54v1.66c.09-.11.18-.22.28-.33.92-1.03,2.04-1.54,3.38-1.54s2.47.51,3.38,1.54c.89,1,1.33,2.17,1.33,3.53s-.44,2.53-1.33,3.53c-.92,1.03-2.04,1.54-3.38,1.54s-2.47-.51-3.38-1.54c-.1-.11-.19-.22-.28-.33v7.17h-1.54Zm7.4-12.83c-.66-.71-1.47-1.06-2.44-1.06s-1.78.35-2.44,1.06c-.65.7-.98,1.52-.98,2.47s.33,1.77.98,2.47c.66.71,1.47,1.06,2.44,1.06s1.78-.35,2.44-1.06c.65-.7.98-1.53.98-2.47s-.33-1.77-.98-2.47Z"/>
  <path class="uuid-fae7661a-dba1-49b5-9b22-cfcd7f4fca63" d="m391.73,181.48h-8.53c.15.83.55,1.52,1.21,2.05.67.54,1.42.82,2.25.82.56,0,1.09-.13,1.6-.39.51-.26.93-.61,1.27-1.07h1.76c-.41.93-1.03,1.66-1.86,2.19-.83.54-1.68.8-2.54.8s-1.59-.13-2.2-.4c-.61-.26-1.15-.62-1.61-1.08-.99-.98-1.49-2.17-1.49-3.57s.5-2.59,1.49-3.58c.99-.99,2.19-1.49,3.58-1.49s2.54.48,3.54,1.43c1.02.97,1.53,2.13,1.53,3.46v.82Zm-2.88-3.37c-.64-.53-1.37-.79-2.19-.79-1.26,0-2.25.57-2.98,1.71-.22.35-.37.72-.46,1.14h6.88c-.18-.83-.59-1.51-1.25-2.05Z"/>
  <path class="uuid-fae7661a-dba1-49b5-9b22-cfcd7f4fca63" d="m405.11,184.75c1.41,0,2.12-.53,2.12-1.58,0-.62-.51-1.09-1.52-1.42-.43-.14-.88-.27-1.38-.39-.49-.12-.95-.28-1.39-.48-.5-.23-.87-.52-1.12-.88-.25-.35-.37-.77-.37-1.25,0-.96.34-1.69,1.02-2.19.68-.5,1.49-.74,2.43-.74s1.72.19,2.35.58c.62.38,1.03,1.06,1.24,2.04h-1.65c-.16-.54-.42-.9-.75-1.08-.34-.18-.74-.27-1.22-.27s-.89.1-1.24.31c-.35.21-.53.54-.53.97s.15.76.44.96c.29.2.64.37,1.07.5.43.13.89.26,1.38.37.5.11.96.27,1.39.47,1,.48,1.5,1.24,1.5,2.28s-.37,1.82-1.12,2.31c-.38.25-.79.44-1.25.56-.45.12-.94.19-1.47.19-2.25,0-3.54-1-3.88-3h1.63c.16.63.44,1.07.83,1.33.39.26.89.39,1.5.39Z"/>
  <rect class="uuid-5a231083-006c-47ff-970f-58f65787d99e" x="0" y="147.98" width="505.64" height="1.95"/>
  <path class="uuid-9c8a1767-e9b9-4d09-afdd-35b843e3f65d" d="m396.64,171.89v-60.1c1.98-39.87-35.59-38.86-35.59-38.86-8.71-38.01-44.67-26.72-44.67-26.72,0,0-4.29-23.27-32.54-23.59-28.25-.32-31.02-22.62-31.02-22.62,0,0-2.77,22.3-31.02,22.62-28.25.32-32.54,23.59-32.54,23.59,0,0-35.96-11.29-44.67,26.72,0,0-37.57-1.01-35.59,38.86v60.1l2.46.21v-59.07c-1.95-39.19,34.98-38.2,34.98-38.2,8.56-37.36,43.91-26.26,43.91-26.26,0,0,4.21-22.87,31.98-23.19,27.76-.32,30.49-22.23,30.49-22.23,0,0,2.73,21.92,30.49,22.23,27.76.32,31.98,23.19,31.98,23.19,0,0,35.35-11.1,43.91,26.26,0,0,36.93-.99,34.98,38.2v59.07l2.46-.21Z"/>
</svg>