<?xml version="1.0" encoding="UTF-8"?>
<svg id="uuid-e77cbc25-c3da-4318-821b-47e695898b20" data-name="Layer 1" xmlns="http://www.w3.org/2000/svg" viewBox="0 0 417.46 336.72">
  <defs>
    <style>
      .uuid-eca00e13-4ca4-495b-8871-d6738c077f34 {
        fill: #fdf6ee;
        stroke-width: 0px;
      }
    </style>
  </defs>
  <path class="uuid-eca00e13-4ca4-495b-8871-d6738c077f34" d="m270.28,225.83c2.57-5.7,5.68-10.53,9.68-14.76,5.81-6.13,12.76-10.21,21.1-11.85,9.6-1.89,18.68-.63,26.91,4.81,6.24,4.12,10.44,9.97,13.37,16.81,2.27,5.29,3.45,10.85,4.1,16.5.36,3.1.06,6.26.1,9.4.09,7.93-1.8,15.47-4.57,22.8-1.88,4.98-4.38,9.66-7.61,13.95-6.87,9.12-15.7,15.02-27.04,17.07-2.46.45-4.98.84-7.41.79-9.55-.17-18.75-1.93-26.95-7.26-.57-.37-1.16-.81-1.94-.75-.44.74-.21,1.54-.21,2.29-.02,9.72.03,19.44-.04,29.16-.02,2.34.52,4.47,1.36,6.59.66,1.64,1.24,3.32,1.83,4.93-.78.61-1.51.39-2.19.39-6.58.02-13.17.01-19.75.01-.31,0-.63.02-.94,0-1.37-.09-1.7-.52-1.24-1.77.81-2.2,1.65-4.39,2.56-6.54.38-.9.52-1.78.52-2.73,0-35.74-.01-71.49.01-107.23,0-2.21-1.16-4.02-1.76-6.02-.33-1.12-.92-2.15-1.33-3.25-.52-1.42-.34-1.91,1.11-2.48,3.99-1.58,8.02-3.09,12.02-4.63,2.11-.81,4.23-1.62,6.34-2.45,1.05-.41,1.47-.01,1.46,1.04,0,.55,0,1.1,0,1.65,0,6.98,0,13.95,0,20.93,0,.74-.18,1.53.47,2.6Zm-.48,35.6c0,8.78.08,17.55-.06,26.33-.03,2.01.73,3.19,2.25,4.2,4.85,3.21,10.21,5.17,15.96,5.65,6.7.56,13.24-.16,19.23-3.75,3.68-2.21,6.89-4.92,9.52-8.24,3.11-3.93,5.47-8.35,7.29-13.04,2.85-7.34,4.15-15,4.57-22.8.17-3.1.01-6.22-.32-9.35-.35-3.26-.83-6.48-1.54-9.67-1.43-6.46-3.8-12.51-7.76-17.91-5.18-7.06-14.32-10.8-23.38-8.54-6.31,1.58-11.25,4.99-15.5,9.85-3.83,4.38-6.52,9.33-8.69,14.62-1.1,2.68-1.68,5.45-1.62,8.44.15,8.07.05,16.14.05,24.21Z"/>
  <path class="uuid-eca00e13-4ca4-495b-8871-d6738c077f34" d="m212.54,207.06c6.59-2.45,13.01-4.88,19.46-7.24,1.87-.68,2.01-.54,2.04,1.39.03,2.27,0,4.55,0,6.82,0,26.26.04,52.52-.05,78.78,0,3.06.48,5.88,1.76,8.62.62,1.34,1.8,3.03,1.18,4.11-.71,1.24-2.73.43-4.16.45-4.86.08-9.72.04-14.58.02-1.96,0-1.98-.04-2.01-1.95-.03-1.65.02-3.29-.02-4.94-.02-.66.34-1.52-.51-1.88-.7-.3-1.1.39-1.58.76-2.91,2.23-5.83,4.45-9.12,6.13-5.45,2.79-11.24,3.97-17.26,3.23-6.37-.78-10.99-4.23-13.33-10.36-1.04-2.72-1.47-5.56-1.47-8.48.02-20.93-.01-41.86.04-62.79,0-2.25-.45-4.33-1.27-6.38-.6-1.53-1.22-3.05-1.79-4.58-.5-1.34-.32-1.75,1.11-2.3,3.5-1.34,7.02-2.63,10.53-3.94,2.49-.93,4.96-1.91,7.46-2.79,1.58-.56,1.73-.41,1.8,1.24.02.55,0,1.1,0,1.65,0,27.12,0,54.25,0,81.37,0,2.78.78,5.33,1.76,7.92,1.17,3.06,5.79,4.87,8.65,4.23,4.34-.97,8.11-2.98,11.71-5.64,2.72-2.01,3.31-4.4,3.31-7.44-.05-19.83-.12-39.67.04-59.5.04-4.9-.93-9.44-2.88-13.85-.35-.79-.64-1.59-.82-2.68Z"/>
  <path class="uuid-eca00e13-4ca4-495b-8871-d6738c077f34" d="m126.13,118.44c-10.9,0-21.79,0-32.69,0-2.54,0-2.62,0-3.11,2.4-.58,2.82-1.03,5.65-1.26,8.54-.21,2.57-.48,5.14-.37,7.71.4,8.84,1.7,17.5,5.19,25.74,2.63,6.21,6.08,11.83,11.1,16.35,5,4.5,10.82,7.13,17.58,8.05,4.52.62,8.68-.1,12.84-1.52,2.99-1.02,5.56-2.79,8.08-4.67,3.63-2.7,6.35-6.2,9.07-9.73,1.08-1.4,1.33-1.46,2.54-.32,1.82,1.72,3.17,3.87,5.05,5.55.72.65.61,1.36-.18,1.97-3.29,2.56-6.87,4.62-10.72,6.22-5.14,2.13-10.55,3.39-16.03,4.16-4.62.65-9.28.89-13.99.21-3.31-.48-6.66-.7-9.9-1.54-7.5-1.94-14.28-5.26-20.36-10.18-5.6-4.53-9.69-10.15-12.86-16.46-2.75-5.47-4.21-11.35-4.93-17.47-.4-3.37-.55-6.74-.3-10.06.44-5.84,1.6-11.56,3.97-16.99,1.47-3.39,3.15-6.65,5.33-9.6,3.88-5.26,8.52-9.72,14.18-13.12,5.85-3.52,12.19-5.66,18.86-6.64,5.79-.85,11.64-.88,17.51-.25,3.11.33,6.19.76,9.19,1.56,4.96,1.32,9.57,3.51,13.37,7.01,4.28,3.93,6.66,8.97,7.85,14.63.43,2.02.46,4.03.45,6.06-.01,2.35-.02,2.37-2.3,2.38-4.31.01-8.62,0-12.93,0-6.74,0-13.48,0-20.22,0Zm-8.78-1.88c5.33,0,10.65,0,15.98,0,2.66,0,5.33,0,7.99,0,2.41,0,2.35-.02,2.42-2.52.03-1.13-.39-2.15-.47-3.23-.36-4.76-1.74-9.21-4.17-13.28-2.61-4.36-6.14-7.64-11.33-8.74-3.5-.74-6.97-.63-10.45.03-4.69.9-8.98,2.79-12.61,5.87-4.83,4.11-8.48,9.16-10.95,15.03-.76,1.8-1.37,3.65-2.05,5.48-.34.92.04,1.33.97,1.34.55,0,1.1,0,1.64,0,7.68,0,15.35,0,23.03,0Z"/>
  <path class="uuid-eca00e13-4ca4-495b-8871-d6738c077f34" d="m327.85,118.44c-10.97,0-21.95,0-32.92,0-2.53,0-2.5.08-3.03,2.49-1.47,6.69-1.79,13.5-1.33,20.27.53,7.79,2.19,15.39,5.39,22.62,1.53,3.46,3.39,6.69,5.61,9.71,5.28,7.2,12.15,12.01,21.09,13.54,5.77.99,11.35.32,16.62-2.26,2.6-1.27,4.94-2.97,7.14-4.87,3.15-2.72,5.84-5.82,8.19-9.23.58-.84,1.16-1.18,1.76-.24,1.37,2.12,3.53,3.55,4.88,5.68.95,1.49.98,1.89-.39,2.91-2.39,1.77-4.87,3.43-7.59,4.63-4.73,2.08-9.61,3.66-14.71,4.6-5.24.97-10.53,1.55-15.83,1.13-7.89-.62-15.6-2.24-22.73-5.84-3.68-1.86-7.18-4.09-10.29-6.88-4.59-4.12-8.41-8.87-11.26-14.3-2.28-4.35-3.84-9.03-4.91-13.87-1.26-5.65-1.23-11.39-.8-17.04.44-5.74,1.93-11.34,4.46-16.63,2.63-5.49,5.81-10.59,10.26-14.72,6.83-6.35,14.84-10.44,24.04-12.4,6.27-1.34,12.58-1.58,18.87-1.21,6.3.38,12.56,1.51,18.25,4.54,6.88,3.66,11.65,9.07,13.54,16.79.63,2.58,1.26,5.14,1.26,7.82,0,2.93.11,2.75-2.88,2.75-7.29,0-14.58,0-21.87,0-3.61,0-7.21,0-10.82,0Zm-8.63-1.88c7.52,0,15.05,0,22.57,0q3.77,0,3.3-3.69c0-.08,0-.16-.01-.23-.18-4.41-1.2-8.66-2.98-12.67-1.88-4.23-4.67-7.73-8.97-9.84-4.27-2.1-8.68-2.02-13.26-1.39-6.33.87-11.47,3.92-15.99,8.15-2.57,2.41-4.52,5.39-6.29,8.42-1.75,2.97-3.06,6.16-4.05,9.47-.41,1.39-.17,1.69,1.23,1.78.55.03,1.1,0,1.65,0,7.6,0,15.21,0,22.81,0Z"/>
  <path class="uuid-eca00e13-4ca4-495b-8871-d6738c077f34" d="m192.18,117.07c0,19.36.03,38.72-.04,58.08,0,2.17.42,4.18,1.16,6.17.57,1.54,1.2,3.05,1.78,4.59.53,1.38.38,1.66-1.12,1.68-2.98.04-5.96.01-8.93.01-4.08,0-8.15.02-12.23,0-1.82-.01-1.94-.19-1.38-1.87.52-1.55.99-3.14,1.7-4.61.95-1.97,1.2-3.99,1.19-6.14-.03-33.15-.05-66.31.02-99.46,0-2.93-.88-5.52-1.84-8.16-.4-1.1-.73-2.24-1.21-3.3-.5-1.11.01-1.6.94-1.95,3.51-1.31,7.02-2.62,10.53-3.94,2.41-.91,4.81-1.86,7.23-2.74,2-.72,2.16-.61,2.18,1.46.02,4.08,0,8.15,0,12.23,0,15.99,0,31.98,0,47.97Z"/>
  <path class="uuid-eca00e13-4ca4-495b-8871-d6738c077f34" d="m393.79,64.65c.35.82.2,1.61.2,2.38.01,6.35,0,12.7.01,19.04,0,2.22.03,2.24,2.19,2.25,3.13.02,6.27,0,9.4,0,.47,0,.94,0,1.41.02.63.02,1.07.26,1.03.98-.04.73-.55.86-1.14.87-.55,0-1.1.01-1.65.01-3.13,0-6.27-.02-9.4,0-1.79.02-1.81.06-1.84,1.89-.03,1.88,0,3.76,0,5.64,0,24.22,0,48.43,0,72.65,0,3.95,1.2,7.53,3.4,10.77,1.85,2.73,5.22,3.81,8.4,3.24,4.34-.78,7.01-3.51,9.09-7.09.35-.61.63-1.26,1-1.86.21-.34.57-.55,1-.33.38.19.62.55.56.95-.08.45-.27.89-.47,1.31-2.36,5.12-6.42,8.41-11.58,10.34-7.59,2.83-14.98,2.48-21.98-1.89-3.91-2.45-5.64-6.34-6.77-10.58-.38-1.43-.5-2.9-.56-4.39-1.02-26.07-.15-52.15-.44-78.23,0-.39-.02-.78,0-1.18.02-.9-.46-1.25-1.31-1.25-1.49.01-2.98,0-4.47,0-.55,0-1.1,0-1.65-.02-.66-.02-1.02-.35-.97-1.04.05-.58.46-.79.97-.8,1.8-.02,3.6,0,5.41-.03,1.96-.03,1.82-.06,2.05-1.95.56-4.58-1.27-8.59-2.89-12.64-.42-1.06-.26-1.52.83-1.91,6.6-2.4,13.19-4.86,19.78-7.29.06-.02.14.04.39.12Z"/>
  <path class="uuid-eca00e13-4ca4-495b-8871-d6738c077f34" d="m.01,88.61c.73-.45,1.45-.27,2.13-.27,6.82-.01,13.64,0,20.46,0,.31,0,.63-.01.94,0,1.49.08,1.81.43,1.54,1.87-.32,1.68-.62,3.37-1.05,5.03-.41,1.57-.33,3.06.18,4.6,3.87,11.71,7.83,23.4,11.54,35.17,3.27,10.36,6.84,20.63,10.2,30.96.49,1.51.48,3.24,1.84,4.68,1.06-2.44,1.56-4.85,2.25-7.2,2.13-7.26,4.16-14.55,6.21-21.83,1.89-6.68,3.73-13.37,5.65-20.04.75-2.62,1.6-5.21,2.13-7.9.95-4.79.9-9.44-1.38-13.9-1.5-2.93-3.88-5.09-6.36-7.13-1.31-1.09-2.83-1.93-4.26-2.88-.38-.25-.9-.44-.71-1.03.15-.47.64-.38,1.01-.38,1.1-.02,2.2-.01,3.29-.01,5.1,0,10.19,0,15.29,0,2.33,0,2.39.04,1.76,2.37-1.27,4.67-2.61,9.31-3.93,13.97-2.18,7.65-4.37,15.3-6.54,22.96-2,7.05-3.97,14.11-5.95,21.17-1.88,6.68-3.76,13.36-5.63,20.05-.46,1.65-.92,3.31-1.34,4.97-.53,2.13.41,4.01,1.14,5.88.85,2.18,1.22,4.52,2.29,6.64.37.74-.01,1.21-.83,1.24-1.02.03-2.04.02-3.06.02-4.16,0-8.31,0-12.47,0-2.12,0-2.15,0-2.81-1.99-1.69-5.11-3.34-10.24-5.02-15.36-2.42-7.35-4.88-14.68-7.3-22.03-3.72-11.28-7.43-22.56-11.13-33.84-1.6-4.89-3.16-9.81-4.74-14.71-1.16-3.61-3.46-6.65-5.04-10.05-.13-.27-.38-.49-.31-1.01Z"/>
  <path class="uuid-eca00e13-4ca4-495b-8871-d6738c077f34" d="m249.59,170.71c.77-2.6,1.56-5.2,2.3-7.82,1.91-6.75,3.79-13.52,5.69-20.27,2.58-9.16,5.22-18.3,7.72-27.48,1.06-3.88,1.2-7.89.3-11.83-.93-4.03-3.28-7.2-6.5-9.76-2.18-1.73-4.4-3.41-6.77-5.05h22.57c-.72,2.57-1.4,5.03-2.08,7.48-2.43,8.71-4.85,17.43-7.3,26.14-2.18,7.73-4.41,15.45-6.59,23.18-2.35,8.33-4.67,16.67-7,25.01-2.58,4.54-.1,8.59,1.31,12.71.48,1.41.87,2.81,1.23,4.21-.6.58-1.25.34-1.84.34-4.86.02-9.72.02-14.58,0-2.16,0-2.21,0-2.83-1.98-1.48-4.7-3.09-9.34-4.57-14.04-2.85-9.09-6-18.09-8.99-27.15-3.43-10.38-6.83-20.78-10.23-31.17-1.26-3.86-2.54-7.71-3.71-11.59-1.02-3.4-2.66-6.48-4.39-9.54-.6-1.07-1.12-2.2-1.62-3.19.51-.78,1.12-.58,1.63-.58,7.21-.01,14.42,0,21.64,0,.24,0,.47,0,.71,0,1.01-.01,1.41.34,1.11,1.44-.42,1.58-.51,3.25-1.04,4.78-.85,2.48-.12,4.74.62,7.03,3.21,9.96,6.63,19.84,9.78,29.82,3.15,9.98,6.6,19.87,9.9,29.81,1.05,3.17,2.07,6.35,3.1,9.52.15,0,.31-.02.46-.03Z"/>
  <path class="uuid-eca00e13-4ca4-495b-8871-d6738c077f34" d="m155.99,221.37c-1.08-1-1.68-2.19-2.41-3.27-3.3-4.82-7.23-9.08-11.97-12.44-4.33-3.06-9.22-4.76-14.66-4.97-4.41-.17-8.68.12-12.81,1.7-4.98,1.9-9.13,4.91-12.55,9.08-4.3,5.23-7.28,11.1-9.18,17.53-1.39,4.7-2.5,9.47-2.87,14.41-.15,1.94-.32,3.88-.39,5.82-.19,5.56.4,11.06,1.43,16.51,1.4,7.39,4.12,14.24,8.36,20.46,2.95,4.32,6.6,7.97,11.24,10.4,3.4,1.78,7.07,2.83,10.98,2.97,10.92.41,19.84-3.96,27.54-11.34,1.59-1.52,3-3.18,4.32-4.93,1.01-1.34,1.07-1.38,2.25-.16,1.79,1.85,3.47,3.81,5.25,5.68.79.83.41,1.38-.28,1.93-2.89,2.32-6.14,4.04-9.54,5.46-6.31,2.62-12.93,3.92-19.69,4.83-4.93.67-9.89.69-14.75.28-9.32-.78-17.95-3.85-25.43-9.71-9.81-7.7-15.89-17.64-18.19-29.91-.78-4.14-1.5-8.3-1.33-12.52.28-6.96,1.47-13.77,4.01-20.31,1.86-4.79,4.36-9.23,7.66-13.09,3.92-4.58,8.39-8.59,13.88-11.38,4.57-2.32,9.34-4.02,14.36-4.89,1.97-.34,3.98-.85,6.04-.62,1.5.16,2.9-.71,4.41-.46,4.32.7,8.74.07,13.05.91.15.03.31.03.47.02,4.62-.2,9.19.72,13.82.51,3.11-.15,3.15-.03,3.8,3.04,1.22,5.79,2.39,11.58,3.58,17.37.06.31.01.62-.39,1.11Z"/>
  <path class="uuid-eca00e13-4ca4-495b-8871-d6738c077f34" d="m79.2,21.98c1.24-.93,2.3-1.85,3.48-2.57,3.09-1.92,6.34-3.26,10.12-3.08,4.15.2,7.51,2.72,8.53,6.74.37,1.44.54,2.9.54,4.4-.04,11.68.02,23.36-.06,35.05-.01,1.86.44,3.52,1.05,5.22.7,1.95.49,2.22-1.48,2.24-3.06.03-6.12.03-9.17,0-1.69-.02-1.87-.27-1.2-1.77,1.12-2.48,1.49-5.03,1.47-7.75-.08-11.05-.04-22.11-.03-33.17,0-1.89-.28-3.74-1.05-5.47-1.01-2.28-2.77-3.15-5.15-2.53-2.63.69-4.86,2.09-6.73,4.09-.59.64-.72,1.33-.72,2.15,0,12.54,0,25.09,0,37.63,0,1.46.58,2.73,1.17,4.02.22.5.36,1.03.53,1.55.26.8-.06,1.21-.87,1.23-.7.02-1.41.02-2.12.02-2.67,0-5.33.03-8-.01-1.53-.03-1.91-.52-1.23-1.89,1.06-2.13,1.13-4.34,1.12-6.63-.03-16.78-.03-33.56,0-50.34,0-1.83-.23-3.56-.99-5.24-.79-1.74-.62-2.1,1.13-2.79,2.47-.97,4.95-1.92,7.46-2.8,1.58-.55,1.77-.41,1.78,1.24.03,5.88,0,11.76.02,17.64,0,.84-.22,1.71.39,2.8Z"/>
  <path class="uuid-eca00e13-4ca4-495b-8871-d6738c077f34" d="m136.68,33.29c-5.56,0-11.13,0-16.69,0-1.81,0-1.84.02-2.2,1.82-.8,3.91-1.04,7.79-.52,11.82.6,4.66,1.77,9.05,4.1,13.08,2.58,4.46,6.09,7.9,11.31,9.18,6.12,1.5,12.88-.97,16.6-6.09q2.01-2.77,4.4-.33c.16.17.34.33.5.5.94,1.04.96,1.46-.18,2.23-2.27,1.54-4.66,2.93-7.3,3.68-3.83,1.08-7.72,1.98-11.74,1.73-7.64-.46-14.59-2.74-20.03-8.37-3.89-4.03-6.15-8.91-7.05-14.5-1-6.23-.34-12.22,2.59-17.74,4.05-7.64,10.41-12.25,19.11-13.51,4.77-.69,9.47-.69,14.15.5,6.48,1.64,10.46,5.63,11.69,12.27.01.08.02.16.03.23.47,3.13.15,3.5-3.02,3.51-5.25,0-10.5,0-15.75,0Zm-18.24-1.25c.36.13.56.28.77.28,8.46.02,16.91.03,25.37.02,1.34,0,1.68-.38,1.46-1.75-.38-2.38-.75-4.76-1.75-7-2.29-5.12-6.79-7.16-12.27-5.97-4.09.89-7.14,3.18-9.58,6.29-1.86,2.37-3.25,5.1-3.99,8.13Z"/>
  <path class="uuid-eca00e13-4ca4-495b-8871-d6738c077f34" d="m39.91,17.61c1.11-.52,2.13-.29,3.12-.31.97-.01,1.45-.36,1.43-1.38-.02-1.25.08-2.49-.6-3.66-.35-.6-.54-1.3-.72-1.98-.21-.84-.03-1.54.91-1.88,2.79-1.02,5.57-2.04,8.35-3.09,1.06-.4,1.46,0,1.46,1.05,0,2.98-.02,5.96.01,8.94.02,1.94.05,1.95,1.98,1.99,1.33.02,2.67-.01,4,.02.43,0,.95-.17,1.28.54-.42.55-1.08.37-1.64.38-1.41.03-2.82.04-4.23,0-1-.02-1.44.42-1.4,1.41.02.47,0,.94,0,1.41,0,12.46-.01,24.93,0,37.39,0,2.43.44,4.75,1.44,7.03,1.19,2.72,4.03,3.13,6.33,2.25,1.19-.46,2.15-1.16,2.84-2.33.39-.67.63-1.64,1.83-1.89.07,1.24-.49,2.16-1.17,2.91-3.22,3.55-7.19,4.91-11.99,4.22-3.17-.46-5.62-1.81-7.21-4.58-1.07-1.86-1.49-3.91-1.49-6.06,0-12.93,0-25.87,0-38.8,0-3.05.25-3-2.9-2.97-.5,0-1.1.21-1.65-.61Z"/>
</svg>